<svg xmlns="http://www.w3.org/2000/svg" width="179.63" height="71" viewBox="875 326 179.63 71"><path d="M910.702 367.984a6.712 6.712 0 0 1-6.71 6.716 6.712 6.712 0 0 1-6.71-6.716 6.712 6.712 0 0 1 6.71-6.716 6.712 6.712 0 0 1 6.71 6.716m22.288 0c0-13.453-9.16-24.74-21.571-28.026a7.47 7.47 0 0 1-7.427 6.675c-3.857 0-7.025-2.924-7.427-6.675C884.16 343.238 875 354.524 875 367.984 875 384.012 887.984 397 903.992 397c16.008 0 28.991-12.995 28.991-29.016m40.099-6.518h.437v-22.177a28.978 28.978 0 0 0-8.547 2.657c-3.331 1.415-4.84 2.965-4.84 2.965v-4.099h-22.807v54.152h22.807V361.48h12.943v-.014Zm35.483 6.347a6.712 6.712 0 0 1-6.71 6.716 6.712 6.712 0 0 1-6.71-6.716 6.712 6.712 0 0 1 6.71-6.716 6.712 6.712 0 0 1 6.71 6.716m19.592.191c0-14.88-11.905-26.946-26.595-26.946-1.052 0-2.083.068-3.1.185V326h-20.56v68.95h20.56c1.796.035 2.048 0 3.1 0 14.69 0 26.595-12.065 26.595-26.946m26.473-27.171h-21.892v54.131h21.892v-54.125Z" fill="#231f20" fill-rule="evenodd" data-name="nome"/></svg>