<svg xmlns="http://www.w3.org/2000/svg" width="196" height="77" viewBox="647 2886 196 77"><g data-name="logo"><path d="M678.785 2905.593a5.524 5.524 0 1 0-.002-11.048 5.524 5.524 0 0 0 .002 11.048" fill="#ff0a6b" fill-rule="evenodd" data-name="elipse"/><path d="M685.956 2931.532c0 4.023-3.278 7.283-7.322 7.283-4.045 0-7.322-3.26-7.322-7.283 0-4.024 3.277-7.284 7.322-7.284 4.044 0 7.322 3.26 7.322 7.284m24.32 0c0-14.59-9.997-26.83-23.538-30.394-.432 4.068-3.896 7.239-8.104 7.239-4.209 0-7.665-3.171-8.104-7.24-13.534 3.557-23.53 15.798-23.53 30.395 0 17.382 14.167 31.468 31.634 31.468s31.634-14.093 31.634-31.468m43.752-7.07h.477v-24.05a31.759 31.759 0 0 0-9.326 2.882c-3.635 1.534-5.28 3.216-5.28 3.216v-4.446h-24.886v58.728h24.885v-36.314h14.123v-.015Zm38.717 6.884c0 4.024-3.277 7.284-7.321 7.284-4.045 0-7.322-3.26-7.322-7.284 0-4.023 3.277-7.283 7.322-7.283 4.044 0 7.321 3.26 7.321 7.283m21.378.208c0-16.138-12.99-29.223-29.02-29.223a29.92 29.92 0 0 0-3.381.2V2886h-22.435v74.777h22.435c1.959.037 2.234 0 3.381 0 16.03 0 29.02-13.085 29.02-29.223M843 2902.086h-23.887v58.706H843v-58.698Z" fill="#231f20" fill-rule="evenodd" data-name="nome"/></g></svg>