<svg width="154" height="31" viewBox="0 0 154 31" fill="none" xmlns="http://www.w3.org/2000/svg">
<path d="M1.05682 20.4983V11.771H4.00568C4.69034 11.771 5.25 11.8946 5.68466 12.1418C6.12216 12.3861 6.44602 12.717 6.65625 13.1347C6.86648 13.5523 6.97159 14.0182 6.97159 14.5324C6.97159 15.0466 6.86648 15.5139 6.65625 15.9344C6.44886 16.3548 6.12784 16.6901 5.69318 16.9401C5.25852 17.1872 4.7017 17.3108 4.02273 17.3108H1.90909V16.3733H3.98864C4.45739 16.3733 4.83381 16.2923 5.1179 16.1304C5.40199 15.9685 5.60795 15.7497 5.7358 15.4741C5.86648 15.1957 5.93182 14.8818 5.93182 14.5324C5.93182 14.183 5.86648 13.8705 5.7358 13.5949C5.60795 13.3193 5.40057 13.1034 5.11364 12.9472C4.8267 12.7881 4.44602 12.7085 3.97159 12.7085H2.11364V20.4983H1.05682ZM11.1264 20.6347C10.5355 20.6347 10.017 20.494 9.57102 20.2128C9.12784 19.9315 8.78125 19.5381 8.53125 19.0324C8.28409 18.5267 8.16051 17.9358 8.16051 17.2597C8.16051 16.5778 8.28409 15.9827 8.53125 15.4741C8.78125 14.9656 9.12784 14.5707 9.57102 14.2895C10.017 14.0082 10.5355 13.8676 11.1264 13.8676C11.7173 13.8676 12.2344 14.0082 12.6776 14.2895C13.1236 14.5707 13.4702 14.9656 13.7173 15.4741C13.9673 15.9827 14.0923 16.5778 14.0923 17.2597C14.0923 17.9358 13.9673 18.5267 13.7173 19.0324C13.4702 19.5381 13.1236 19.9315 12.6776 20.2128C12.2344 20.494 11.7173 20.6347 11.1264 20.6347ZM11.1264 19.7312C11.5753 19.7312 11.9446 19.6162 12.2344 19.3861C12.5241 19.156 12.7386 18.8534 12.8778 18.4784C13.017 18.1034 13.0866 17.6972 13.0866 17.2597C13.0866 16.8222 13.017 16.4145 12.8778 16.0366C12.7386 15.6588 12.5241 15.3534 12.2344 15.1204C11.9446 14.8875 11.5753 14.771 11.1264 14.771C10.6776 14.771 10.3082 14.8875 10.0185 15.1204C9.72869 15.3534 9.5142 15.6588 9.375 16.0366C9.2358 16.4145 9.16619 16.8222 9.16619 17.2597C9.16619 17.6972 9.2358 18.1034 9.375 18.4784C9.5142 18.8534 9.72869 19.156 10.0185 19.3861C10.3082 19.6162 10.6776 19.7312 11.1264 19.7312ZM15.6275 20.4983V13.9528H16.5991V14.9415H16.6673C16.7866 14.6176 17.0025 14.3548 17.315 14.1531C17.6275 13.9514 17.9798 13.8506 18.3718 13.8506C18.4457 13.8506 18.538 13.852 18.6488 13.8548C18.7596 13.8577 18.8434 13.8619 18.9002 13.8676V14.8903C18.8661 14.8818 18.788 14.869 18.6658 14.852C18.5465 14.8321 18.4201 14.8222 18.2866 14.8222C17.9684 14.8222 17.6843 14.8889 17.4343 15.0224C17.1871 15.1531 16.9911 15.3349 16.8462 15.5679C16.7042 15.798 16.6332 16.0608 16.6332 16.3562V20.4983H15.6275Z" fill="#231F20"/>
<path d="M47.7934 16.918C47.9691 16.4057 48.1885 15.9093 48.4488 15.4351C47.1314 14.4369 46.2793 12.8621 46.2793 11.093C46.2793 8.08388 48.7421 5.63697 51.769 5.63697C54.7959 5.63697 57.2573 8.08519 57.2573 11.093C57.2573 12.8621 56.4051 14.4369 55.0879 15.4351C55.3481 15.9093 55.5675 16.4057 55.7432 16.918C57.6167 15.6492 58.8507 13.5123 58.8507 11.0943C58.8507 7.21177 55.6731 4.05298 51.7676 4.05298C47.8621 4.05298 44.6846 7.21177 44.6846 11.0943C44.6859 13.5123 45.9199 15.6492 47.7934 16.918Z" fill="#B31983"/>
<path d="M52.092 20.5667C51.7603 23.2631 49.4456 25.3581 46.6446 25.3581C43.6177 25.3581 41.1562 22.9098 41.1562 19.9021C41.1562 16.893 43.619 14.4461 46.6446 14.4461C47.4029 14.4461 48.1256 14.5998 48.7837 14.8769C49.0783 14.4212 49.4139 13.9917 49.7838 13.5924C48.8365 13.1249 47.7716 12.8608 46.6446 12.8608C42.7391 12.8608 39.5615 16.0196 39.5615 19.9021C39.5615 23.7846 42.7391 26.9434 46.6446 26.9434C50.3955 26.9434 53.4727 24.0289 53.7104 20.3592C53.1754 20.4774 52.635 20.547 52.092 20.5667Z" fill="#73308A"/>
<path d="M56.8928 12.8623C55.7658 12.8623 54.7009 13.1263 53.7548 13.5939C54.1248 13.9932 54.459 14.4227 54.755 14.8784C55.4129 14.6013 56.1357 14.4476 56.8941 14.4476C59.921 14.4476 62.3824 16.8959 62.3824 19.9036C62.3824 22.9127 59.9197 25.3595 56.8941 25.3595C54.0931 25.3595 51.7783 23.2633 51.4467 20.5682C50.9037 20.5485 50.3632 20.4789 49.8281 20.3607C50.066 24.0304 53.1431 26.9449 56.8941 26.9449C60.7996 26.9449 63.9771 23.7861 63.9771 19.9036C63.9745 16.0198 60.7982 12.8623 56.8928 12.8623Z" fill="#F93549"/>
<path d="M46.6465 17.935C46.9398 17.935 47.216 18.0034 47.467 18.1177C47.685 17.0525 48.0827 16.024 48.6469 15.0941C49.1872 14.205 49.8835 13.409 50.6841 12.7352C50.3129 12.4923 50.0288 12.1297 49.8874 11.7029C49.6628 11.892 49.4436 12.089 49.2334 12.2992C47.6572 13.866 46.6359 15.8349 46.2581 17.9731C46.3836 17.9482 46.5131 17.935 46.6465 17.935Z" fill="#EE4043"/>
<path d="M64.4014 12.299C62.376 10.2855 59.6833 9.177 56.8202 9.177C55.5823 9.177 54.3773 9.38452 53.245 9.7825C53.5595 10.1305 53.7524 10.5902 53.7524 11.0946C53.7524 11.1169 53.7511 11.1379 53.7498 11.1603C54.7116 10.8227 55.7435 10.6375 56.8202 10.6375C61.9228 10.6375 66.0741 14.7644 66.0741 19.8368C66.0741 24.9092 61.9228 29.0359 56.8202 29.0359C52.3056 29.0359 48.5389 25.8049 47.729 21.5481C47.4198 21.7504 47.0485 21.87 46.6508 21.87C46.5266 21.87 46.4051 21.8568 46.2861 21.8345C46.6825 23.9202 47.6946 25.8404 49.2378 27.3745C51.2632 29.3879 53.9559 30.4965 56.8202 30.4965C59.6846 30.4965 62.3773 29.3879 64.4014 27.3745C66.4269 25.361 67.542 22.6843 67.542 19.8368C67.542 16.9893 66.4269 14.3125 64.4014 12.299Z" fill="#F93549"/>
<path d="M52.855 12.7351C53.6557 13.4075 54.352 14.2048 54.8923 15.094C55.4565 16.0226 55.8542 17.051 56.0722 18.1162C56.3232 18.0019 56.5993 17.9336 56.8913 17.9336C57.0247 17.9336 57.1542 17.9467 57.2798 17.9717C56.9032 15.8334 55.8806 13.8646 54.3044 12.2977C54.0943 12.0889 53.8737 11.8905 53.6491 11.7014C53.509 12.1296 53.225 12.4921 52.855 12.7351Z" fill="#6D2C90"/>
<path d="M56.8912 21.8698C56.4922 21.8698 56.1222 21.7516 55.813 21.5494C55.0031 25.8062 51.2363 29.0372 46.723 29.0372C41.6205 29.0372 37.4692 24.9104 37.4692 19.838C37.4692 14.7656 41.6205 10.6387 46.723 10.6387C47.7985 10.6387 48.8317 10.824 49.7922 11.1615C49.7909 11.1392 49.7896 11.1181 49.7896 11.0959C49.7896 10.5915 49.9824 10.1331 50.2982 9.78372C49.1646 9.38706 47.9597 9.17822 46.723 9.17822C43.8586 9.17822 41.166 10.2867 39.1405 12.3003C37.1151 14.3124 36 16.9892 36 19.8367C36 22.6842 37.1151 25.361 39.1405 27.3744C41.166 29.3879 43.8586 30.4964 46.723 30.4964C49.5874 30.4964 52.28 29.3879 54.3055 27.3744C55.8487 25.8403 56.8621 23.9214 57.2571 21.8344C57.1382 21.8567 57.0167 21.8698 56.8912 21.8698Z" fill="#73308A"/>
<path d="M54.9222 20.0066C53.889 20.3809 52.8334 20.574 51.7685 20.574C50.7036 20.574 49.6465 20.3809 48.6134 20.0066C48.5896 20.4584 48.4113 20.8709 48.1311 21.1926C49.2819 21.6038 50.508 21.8192 51.7672 21.8192C53.0263 21.8192 54.2524 21.6038 55.4031 21.1926C55.1244 20.8709 54.9473 20.4584 54.9222 20.0066Z" fill="#B3258E"/>
<path d="M59.3496 3.62201C57.3255 1.60853 54.6328 0.5 51.7684 0.5C48.904 0.5 46.2113 1.60853 44.1859 3.62201C42.1605 5.63549 41.0454 8.31225 41.0454 11.1597C41.0454 14.0072 42.1605 16.684 44.1859 18.6975C44.3788 18.8892 44.5784 19.0692 44.7831 19.2438C44.9549 18.7658 45.3064 18.3731 45.7582 18.1459C43.7751 16.4568 42.5146 13.9521 42.5146 11.1597C42.5146 6.08731 46.6659 1.96053 51.7684 1.96053C56.871 1.96053 61.0223 6.08731 61.0223 11.1597C61.0223 13.9534 59.7618 16.4581 57.7787 18.1459C58.2305 18.3718 58.5819 18.7658 58.7537 19.2438C58.9585 19.0692 59.158 18.888 59.3509 18.6975C61.3763 16.684 62.4915 14.0072 62.4915 11.1597C62.4915 8.31225 61.375 5.63549 59.3496 3.62201Z" fill="#B31983"/>
<path d="M48.6137 20.0073C48.5582 21.0422 47.7008 21.8696 46.6452 21.8696C45.5538 21.8696 44.6659 20.9871 44.6659 19.9022C44.6659 18.8172 45.5538 17.9347 46.6452 17.9347C46.9385 17.9347 47.2146 18.0029 47.4656 18.1172C47.5634 17.6392 47.6995 17.169 47.8686 16.7118C47.488 16.5674 47.0759 16.4873 46.6452 16.4873C44.7505 16.4873 43.21 18.0187 43.21 19.9022C43.21 21.7856 44.7505 23.317 46.6452 23.317C48.368 23.317 49.7989 22.0496 50.0433 20.4026C49.5637 20.3093 49.0867 20.178 48.6137 20.0073Z" fill="#73308A"/>
<path d="M56.8924 16.4873C56.4617 16.4873 56.0495 16.5674 55.669 16.7118C55.8381 17.169 55.9742 17.6392 56.072 18.1172C56.323 18.0029 56.5991 17.9347 56.8911 17.9347C57.9824 17.9347 58.8703 18.8172 58.8703 19.9022C58.8703 20.9871 57.9824 21.8697 56.8911 21.8697C55.8355 21.8697 54.9793 21.0422 54.9225 20.0073C54.4508 20.178 53.9739 20.3093 53.4929 20.4039C53.7374 22.0497 55.1683 23.3184 56.8911 23.3184C58.7857 23.3184 60.3263 21.7869 60.3263 19.9035C60.3263 18.0201 58.7857 16.4873 56.8924 16.4873Z" fill="#F93549"/>
<path d="M49.6311 13.7632C49.9561 13.3954 50.3075 13.0513 50.6841 12.7348C50.1464 12.3828 49.7897 11.7799 49.7897 11.093C49.7897 10.0081 50.6775 9.12546 51.7688 9.12546C52.8602 9.12546 53.7481 10.0081 53.7481 11.093C53.7481 11.7786 53.3913 12.3814 52.8549 12.7334C53.2314 13.05 53.5829 13.3941 53.9079 13.7619C54.698 13.1354 55.2053 12.1726 55.2053 11.0917C55.2053 9.20821 53.6648 7.67676 51.7701 7.67676C49.8755 7.67676 48.335 9.20821 48.335 11.0917C48.3337 12.1739 48.841 13.138 49.6311 13.7632Z" fill="#B31983"/>
<path d="M77.0187 9.12378C80.1878 9.12378 82.0085 10.6814 82.0085 13.4053C82.0085 16.2364 80.1878 17.8847 77.0187 17.8847H74.1198V21.6646H71.9954V9.12378H77.0187ZM74.1183 15.9842H76.929C78.8727 15.9842 79.9721 15.1608 79.9721 13.4582C79.9721 11.8099 78.8727 11.0228 76.929 11.0228H74.1183V15.9842Z" fill="#1F2B7D"/>
<path d="M91.9699 17.6873H84.7296C85.0545 19.1573 86.1888 20.0698 87.7013 20.0698C88.7461 20.0698 89.4811 19.677 90.1841 18.9594L91.5006 20.1242C90.5638 21.1455 89.1971 21.7362 87.5388 21.7362C84.5884 21.7362 82.6416 19.7843 82.6416 16.9169C82.6416 14.0328 84.64 12.0793 87.4857 12.0627C90.8523 12.0627 92.222 14.2473 91.9699 17.6873ZM90.1689 16.1826C90.0976 14.6416 89.071 13.711 87.504 13.711C85.9915 13.711 84.93 14.6598 84.6946 16.1826H90.1689Z" fill="#1F2B7D"/>
<path d="M95.3804 14.0328C96.0288 12.7426 97.1814 12.0627 98.6923 12.0627V14.0328C96.7668 13.9256 95.5413 15.054 95.3804 16.6842V21.6652H93.3091V12.1323H95.3804V14.0328Z" fill="#1F2B7D"/>
<path d="M106.422 13.0114L105.445 14.5342C104.599 14.0145 103.754 13.6927 102.908 13.6927C102.098 13.6927 101.505 13.9616 101.505 14.643C101.505 16.3969 106.599 15.4482 106.581 18.9078C106.581 20.8597 104.835 21.7375 102.906 21.7375C101.503 21.7375 99.7886 21.2722 98.835 20.411L100.01 18.9426C100.839 19.6768 101.954 20.124 102.999 20.124C103.879 20.124 104.564 19.8188 104.564 19.1027C104.564 17.1508 99.5199 18.2431 99.5396 14.8031C99.5396 12.8679 101.231 12.043 103.067 12.043C104.277 12.0445 105.557 12.4025 106.422 13.0114Z" fill="#1F2B7D"/>
<path d="M127.611 15.7347V21.6645H125.54V16.3073C125.54 14.8736 124.674 13.9958 123.235 13.9958C121.649 14.014 120.659 15.1077 120.515 16.5944V21.6645H118.445V12.1316H120.515V13.9596C121.201 12.6347 122.424 12.0605 124.046 12.0605C126.276 12.0621 127.611 13.4581 127.611 15.7347Z" fill="#1F2B7D"/>
<path d="M135.23 20.5003C134.547 21.3434 133.447 21.7543 132.061 21.7543C129.989 21.7543 128.695 20.4807 128.695 18.7977C128.695 17.0604 130.01 15.9499 132.314 15.9318H135.213V15.6448C135.213 14.4453 134.438 13.7276 132.925 13.7276C132.007 13.7276 131.27 14.0494 130.317 14.6945L129.253 13.2623C130.584 12.4752 131.557 12.0627 133.376 12.0627C135.844 12.0627 137.231 13.3167 137.248 15.4136L137.267 21.6652H135.232V20.5003H135.23ZM135.213 17.8807V17.4366H132.619C131.269 17.4366 130.637 17.7946 130.637 18.7101C130.637 19.5697 131.34 20.1242 132.491 20.1242C133.972 20.1242 135.313 19.3613 135.213 17.8807Z" fill="#1F2B7D"/>
<path d="M140.824 14.0328C141.472 12.7426 142.625 12.0627 144.137 12.0627V14.0328C142.211 13.9256 140.986 15.054 140.824 16.6842V21.6652H138.753V12.1323H140.824V14.0328Z" fill="#1F2B7D"/>
<path d="M153.705 17.6873H146.465C146.789 19.1573 147.926 20.0698 149.437 20.0698C150.482 20.0698 151.218 19.677 151.918 18.9594L153.236 20.1242C152.301 21.1455 150.932 21.7362 149.275 21.7362C146.321 21.7362 144.375 19.7843 144.375 16.9169C144.375 14.0328 146.376 12.0793 149.221 12.0627C152.588 12.0627 153.957 14.2473 153.705 17.6873ZM151.905 16.1826C151.832 14.6416 150.806 13.711 149.24 13.711C147.728 13.711 146.664 14.6598 146.431 16.1826H151.905Z" fill="#1F2B7D"/>
<path d="M112.325 21.7355C109.57 21.7355 107.327 19.566 107.327 16.8981C107.327 14.23 109.568 12.0605 112.325 12.0605C115.079 12.0605 117.322 14.23 117.322 16.8981C117.322 19.566 115.079 21.7355 112.325 21.7355ZM112.325 14.0215C110.685 14.0215 109.351 15.3117 109.351 16.8995C109.351 18.4874 110.685 19.7776 112.325 19.7776C113.965 19.7776 115.298 18.4874 115.298 16.8995C115.298 15.3117 113.965 14.0215 112.325 14.0215Z" fill="#1F2B7D"/>
</svg>
