<svg width="58" height="62" viewBox="0 0 58 62" fill="none" xmlns="http://www.w3.org/2000/svg">
<path d="M8.94465 50.5002C8.83527 50.1655 8.6911 49.8655 8.51212 49.6004C8.33646 49.3319 8.12599 49.1032 7.88073 48.9143C7.63878 48.7254 7.36368 48.5812 7.05544 48.4818C6.7472 48.3823 6.40914 48.3326 6.04124 48.3326C5.43802 48.3326 4.88949 48.4884 4.39564 48.8C3.9018 49.1115 3.50904 49.5706 3.21737 50.1771C2.92571 50.7836 2.77987 51.5277 2.77987 52.4093C2.77987 53.291 2.92736 54.035 3.22235 54.6416C3.51733 55.2481 3.91671 55.7072 4.4205 56.0187C4.92429 56.3303 5.49105 56.486 6.12078 56.486C6.70412 56.486 7.21785 56.3617 7.66198 56.1132C8.10942 55.8613 8.45743 55.5066 8.70601 55.0492C8.9579 54.5885 9.08385 54.0466 9.08385 53.4235L9.46169 53.5031H6.39919V52.4093H10.277V53.5031C10.277 54.3416 10.0981 55.0708 9.7401 55.6906C9.38546 56.3104 8.89493 56.791 8.26851 57.1323C7.6454 57.4704 6.9295 57.6394 6.12078 57.6394C5.21927 57.6394 4.42713 57.4273 3.74436 57.0031C3.06491 56.5788 2.53461 55.9756 2.15345 55.1934C1.77561 54.4112 1.58669 53.4832 1.58669 52.4093C1.58669 51.6039 1.69441 50.8797 1.90985 50.2367C2.1286 49.5904 2.43683 49.0403 2.83456 48.5862C3.23229 48.1321 3.70293 47.7841 4.24649 47.5421C4.79005 47.3002 5.3883 47.1792 6.04124 47.1792C6.57817 47.1792 7.07864 47.2604 7.54266 47.4228C8.00999 47.5819 8.42594 47.809 8.79053 48.1039C9.15843 48.3956 9.46501 48.7453 9.71027 49.1529C9.95554 49.5573 10.1246 50.0064 10.2174 50.5002H8.94465ZM15.4313 57.6593C14.6955 57.6593 14.0608 57.4969 13.5272 57.1721C12.9969 56.844 12.5876 56.3866 12.2992 55.8C12.0142 55.21 11.8717 54.5239 11.8717 53.7417C11.8717 52.9595 12.0142 52.2701 12.2992 51.6735C12.5876 51.0736 12.9886 50.6063 13.5024 50.2716C14.0194 49.9335 14.6226 49.7644 15.312 49.7644C15.7097 49.7644 16.1025 49.8307 16.4903 49.9633C16.8781 50.0959 17.231 50.3113 17.5492 50.6096C17.8674 50.9046 18.121 51.2957 18.3099 51.7829C18.4988 52.2701 18.5933 52.87 18.5933 53.5826V54.0798H12.7069V53.0656H17.4001C17.4001 52.6347 17.3139 52.2502 17.1416 51.9122C16.9725 51.5741 16.7306 51.3073 16.4157 51.1117C16.1042 50.9162 15.7363 50.8184 15.312 50.8184C14.8447 50.8184 14.4403 50.9344 14.0989 51.1664C13.7609 51.3951 13.5007 51.6934 13.3184 52.0613C13.1361 52.4292 13.045 52.8236 13.045 53.2446V53.9207C13.045 54.4974 13.1444 54.9863 13.3433 55.3873C13.5454 55.785 13.8255 56.0883 14.1835 56.2971C14.5414 56.5026 14.9574 56.6054 15.4313 56.6054C15.7396 56.6054 16.018 56.5623 16.2666 56.4761C16.5185 56.3866 16.7355 56.254 16.9178 56.0784C17.1001 55.8994 17.241 55.6773 17.3404 55.4122L18.4739 55.7304C18.3546 56.1148 18.1541 56.4529 17.8724 56.7446C17.5907 57.0329 17.2426 57.2583 16.8283 57.4207C16.414 57.5798 15.9484 57.6593 15.4313 57.6593ZM16.2864 48.9491L15.2524 47.5571L14.2183 48.9491H13.1046V48.8696L14.7154 46.8014H15.7893L17.4001 48.8696V48.9491H16.2864ZM20.3781 57.5002V49.8639H21.5116V51.0571H21.611C21.7701 50.6494 22.027 50.3329 22.3816 50.1075C22.7363 49.8788 23.1622 49.7644 23.6593 49.7644C24.1631 49.7644 24.5824 49.8788 24.9171 50.1075C25.2552 50.3329 25.5187 50.6494 25.7076 51.0571H25.7872C25.9827 50.6626 26.276 50.3494 26.6671 50.1174C27.0582 49.8821 27.5272 49.7644 28.0741 49.7644C28.7569 49.7644 29.3153 49.9782 29.7495 50.4058C30.1837 50.83 30.4008 51.4912 30.4008 52.3894V57.5002H29.2275V52.3894C29.2275 51.826 29.0734 51.4233 28.7651 51.1814C28.4569 50.9394 28.094 50.8184 27.6764 50.8184C27.1394 50.8184 26.7235 50.9808 26.4285 51.3056C26.1335 51.6271 25.986 52.0348 25.986 52.5287V57.5002H24.7928V52.2701C24.7928 51.8359 24.652 51.4863 24.3703 51.2211C24.0885 50.9527 23.7256 50.8184 23.2815 50.8184C22.9765 50.8184 22.6915 50.8996 22.4264 51.062C22.1645 51.2244 21.9524 51.4498 21.79 51.7382C21.6309 52.0232 21.5514 52.353 21.5514 52.7275V57.5002H20.3781ZM35.7477 57.6593C35.0119 57.6593 34.3772 57.4969 33.8436 57.1721C33.3133 56.844 32.904 56.3866 32.6156 55.8C32.3306 55.21 32.1881 54.5239 32.1881 53.7417C32.1881 52.9595 32.3306 52.2701 32.6156 51.6735C32.904 51.0736 33.305 50.6063 33.8188 50.2716C34.3358 49.9335 34.939 49.7644 35.6284 49.7644C36.0261 49.7644 36.4189 49.8307 36.8067 49.9633C37.1945 50.0959 37.5475 50.3113 37.8656 50.6096C38.1838 50.9046 38.4374 51.2957 38.6263 51.7829C38.8152 52.2701 38.9097 52.87 38.9097 53.5826V54.0798H33.0233V53.0656H37.7165C37.7165 52.6347 37.6303 52.2502 37.458 51.9122C37.2889 51.5741 37.047 51.3073 36.7321 51.1117C36.4206 50.9162 36.0527 50.8184 35.6284 50.8184C35.1611 50.8184 34.7567 50.9344 34.4153 51.1664C34.0773 51.3951 33.8171 51.6934 33.6348 52.0613C33.4525 52.4292 33.3614 52.8236 33.3614 53.2446V53.9207C33.3614 54.4974 33.4608 54.9863 33.6597 55.3873C33.8618 55.785 34.1419 56.0883 34.4999 56.2971C34.8578 56.5026 35.2738 56.6054 35.7477 56.6054C36.056 56.6054 36.3344 56.5623 36.583 56.4761C36.8349 56.3866 37.052 56.254 37.2342 56.0784C37.4165 55.8994 37.5574 55.6773 37.6568 55.4122L38.7904 55.7304C38.671 56.1148 38.4705 56.4529 38.1888 56.7446C37.9071 57.0329 37.5591 57.2583 37.1448 57.4207C36.7305 57.5798 36.2648 57.6593 35.7477 57.6593ZM43.7967 57.6593C43.1073 57.6593 42.5025 57.4953 41.9821 57.1671C41.4651 56.839 41.0607 56.38 40.769 55.79C40.4807 55.2001 40.3365 54.5107 40.3365 53.7218C40.3365 52.9264 40.4807 52.232 40.769 51.6387C41.0607 51.0455 41.4651 50.5848 41.9821 50.2566C42.5025 49.9285 43.1073 49.7644 43.7967 49.7644C44.4861 49.7644 45.0894 49.9285 45.6064 50.2566C46.1268 50.5848 46.5311 51.0455 46.8195 51.6387C47.1111 52.232 47.257 52.9264 47.257 53.7218C47.257 54.5107 47.1111 55.2001 46.8195 55.79C46.5311 56.38 46.1268 56.839 45.6064 57.1671C45.0894 57.4953 44.4861 57.6593 43.7967 57.6593ZM43.7967 56.6054C44.3204 56.6054 44.7513 56.4711 45.0894 56.2027C45.4274 55.9342 45.6777 55.5812 45.8401 55.1437C46.0025 54.7062 46.0837 54.2323 46.0837 53.7218C46.0837 53.2114 46.0025 52.7358 45.8401 52.295C45.6777 51.8542 45.4274 51.4979 45.0894 51.2261C44.7513 50.9543 44.3204 50.8184 43.7967 50.8184C43.2731 50.8184 42.8422 50.9543 42.5041 51.2261C42.1661 51.4979 41.9158 51.8542 41.7534 52.295C41.591 52.7358 41.5098 53.2114 41.5098 53.7218C41.5098 54.2323 41.591 54.7062 41.7534 55.1437C41.9158 55.5812 42.1661 55.9342 42.5041 56.2027C42.8422 56.4711 43.2731 56.6054 43.7967 56.6054ZM54.4571 51.5741L53.4031 51.8724C53.3368 51.6967 53.239 51.526 53.1098 51.3603C52.9838 51.1913 52.8115 51.0521 52.5927 50.9427C52.374 50.8333 52.0939 50.7787 51.7525 50.7787C51.2852 50.7787 50.8958 50.8864 50.5842 51.1018C50.276 51.3139 50.1218 51.5841 50.1218 51.9122C50.1218 52.2038 50.2279 52.4342 50.44 52.6032C50.6522 52.7723 50.9836 52.9131 51.4343 53.0258L52.5679 53.3042C53.2506 53.4699 53.7594 53.7235 54.0941 54.0649C54.4289 54.4029 54.5963 54.8388 54.5963 55.3724C54.5963 55.8099 54.4703 56.201 54.2184 56.5457C53.9699 56.8904 53.6218 57.1622 53.1744 57.361C52.727 57.5599 52.2066 57.6593 51.6133 57.6593C50.8344 57.6593 50.1898 57.4903 49.6794 57.1522C49.169 56.8142 48.8458 56.3203 48.7099 55.6707L49.8236 55.3923C49.9296 55.8033 50.1301 56.1115 50.4251 56.317C50.7234 56.5225 51.1129 56.6252 51.5934 56.6252C52.1403 56.6252 52.5745 56.5092 52.896 56.2772C53.2208 56.0419 53.3832 55.7602 53.3832 55.4321C53.3832 55.1669 53.2904 54.9448 53.1048 54.7659C52.9192 54.5836 52.6342 54.4477 52.2497 54.3582L50.977 54.0599C50.2776 53.8942 49.7639 53.6373 49.4358 53.2893C49.111 52.938 48.9486 52.4988 48.9486 51.9718C48.9486 51.541 49.0695 51.1598 49.3115 50.8284C49.5567 50.4969 49.8898 50.2367 50.3108 50.0478C50.735 49.8589 51.2156 49.7644 51.7525 49.7644C52.5082 49.7644 53.1015 49.9302 53.5324 50.2616C53.9665 50.593 54.2748 51.0305 54.4571 51.5741Z" fill="#231F20"/>
<g filter="url(#filter0_d_1_2608)">
<path d="M42.2621 9.64031C45.1928 9.03971 48.0367 8.25712 50.8154 7.27433L49.1655 3.88916C42.8483 6.10954 36.0752 7.27433 29.2369 7.27433C22.3987 7.27433 15.6255 6.14594 9.30831 3.94376L7.65845 7.27433C10.4372 8.25712 13.281 9.03971 16.2117 9.64031V34.0281C13.281 34.6287 10.4372 35.4113 7.65845 36.3941L9.30831 39.7792C22.073 35.3385 36.4008 35.3385 49.1655 39.7792L50.8154 36.3941C48.0367 35.4113 45.1928 34.6287 42.2621 34.0281V9.64031ZM20.5534 33.3001V10.3501C23.419 10.7141 26.3279 10.9143 29.2369 10.9143C32.1459 10.9143 35.0548 10.7141 37.9204 10.3501V33.3183C32.1676 32.5721 26.3062 32.5721 20.5534 33.3183V33.3001Z" fill="#FF0A6B"/>
</g>
<defs>
<filter id="filter0_d_1_2608" x="4.65845" y="3.88916" width="49.157" height="43.8901" filterUnits="userSpaceOnUse" color-interpolation-filters="sRGB">
<feFlood flood-opacity="0" result="BackgroundImageFix"/>
<feColorMatrix in="SourceAlpha" type="matrix" values="0 0 0 0 0 0 0 0 0 0 0 0 0 0 0 0 0 0 127 0" result="hardAlpha"/>
<feOffset dy="5"/>
<feGaussianBlur stdDeviation="1.5"/>
<feComposite in2="hardAlpha" operator="out"/>
<feColorMatrix type="matrix" values="0 0 0 0 0 0 0 0 0 0 0 0 0 0 0 0 0 0 0.0509804 0"/>
<feBlend mode="normal" in2="BackgroundImageFix" result="effect1_dropShadow_1_2608"/>
<feBlend mode="normal" in="SourceGraphic" in2="effect1_dropShadow_1_2608" result="shape"/>
</filter>
</defs>
</svg>
