<svg width="78" height="62" viewBox="0 0 78 62" fill="none" xmlns="http://www.w3.org/2000/svg">
<path d="M44.5975 23.8333C42.8934 23.8333 41.2136 24.1817 39.7286 24.8417V11C39.7286 7.96243 36.4587 5.5 32.4251 5.5C30.5993 5.5 28.8952 6.03167 27.5562 6.93C26.2172 6.01333 24.4888 5.5 22.6873 5.5V9.16667C24.0318 9.16667 25.1217 9.98748 25.1217 11V29.3333H29.9907V11C29.9907 9.98748 31.0806 9.16667 32.4251 9.16667C33.7697 9.16667 34.8596 9.98748 34.8596 11V31.1667C34.8596 33.1917 32.6797 34.8333 29.9907 34.8333V38.5C32.7903 38.5 35.4682 37.5833 37.2941 35.97C40.8241 39.0317 46.9589 39.3617 51.0245 36.6667C55.0901 34.0633 55.5526 29.425 51.9983 26.3633C50.1481 24.75 47.4458 23.8333 44.5975 23.8333ZM44.5975 34.8333C41.9084 34.8333 39.7286 33.1917 39.7286 31.1667C39.7286 29.1416 41.9084 27.5 44.5975 27.5C47.2865 27.5 49.4664 29.1416 49.4664 31.1667C49.4664 33.1917 47.2865 34.8333 44.5975 34.8333Z" fill="#FF0A6B"/>
<path d="M10.0558 50.5H8.82282C8.7499 50.1454 8.6223 49.8338 8.44001 49.5653C8.26103 49.2969 8.04228 49.0715 7.78376 48.8892C7.52855 48.7036 7.24517 48.5644 6.93362 48.4716C6.62206 48.3788 6.29725 48.3324 5.95918 48.3324C5.34271 48.3324 4.78423 48.4882 4.28376 48.7997C3.7866 49.1113 3.39053 49.5703 3.09555 50.1768C2.80388 50.7834 2.65805 51.5275 2.65805 52.4091C2.65805 53.2907 2.80388 54.0348 3.09555 54.6413C3.39053 55.2479 3.7866 55.7069 4.28376 56.0185C4.78423 56.33 5.34271 56.4858 5.95918 56.4858C6.29725 56.4858 6.62206 56.4394 6.93362 56.3466C7.24517 56.2538 7.52855 56.1162 7.78376 55.9339C8.04228 55.7483 8.26103 55.5213 8.44001 55.2528C8.6223 54.9811 8.7499 54.6695 8.82282 54.3182H10.0558C9.96297 54.8385 9.79394 55.3042 9.54867 55.7152C9.30341 56.1262 8.99848 56.4759 8.6339 56.7642C8.26932 57.0492 7.85999 57.2663 7.40592 57.4155C6.95516 57.5646 6.47292 57.6392 5.95918 57.6392C5.09081 57.6392 4.31856 57.4271 3.64242 57.0028C2.96629 56.5786 2.43433 55.9754 2.04654 55.1932C1.65876 54.411 1.46487 53.483 1.46487 52.4091C1.46487 51.3352 1.65876 50.4072 2.04654 49.625C2.43433 48.8428 2.96629 48.2396 3.64242 47.8153C4.31856 47.3911 5.09081 47.179 5.95918 47.179C6.47292 47.179 6.95516 47.2536 7.40592 47.4027C7.85999 47.5518 8.26932 47.7706 8.6339 48.0589C8.99848 48.344 9.30341 48.692 9.54867 49.103C9.79394 49.5107 9.96297 49.9763 10.0558 50.5ZM14.1362 57.679C13.6523 57.679 13.2131 57.5878 12.8187 57.4055C12.4243 57.2199 12.1111 56.9531 11.8791 56.6051C11.6471 56.2538 11.5311 55.8295 11.5311 55.3324C11.5311 54.8949 11.6173 54.5402 11.7896 54.2685C11.962 53.9934 12.1923 53.7779 12.4807 53.6222C12.769 53.4664 13.0872 53.3504 13.4352 53.2741C13.7865 53.1946 14.1395 53.1316 14.4942 53.0852C14.9582 53.0256 15.3344 52.9808 15.6227 52.951C15.9144 52.9179 16.1265 52.8632 16.2591 52.7869C16.395 52.7107 16.4629 52.5781 16.4629 52.3892V52.3494C16.4629 51.8589 16.3287 51.4777 16.0602 51.206C15.7951 50.9342 15.3924 50.7983 14.8521 50.7983C14.292 50.7983 13.8528 50.9209 13.5346 51.1662C13.2165 51.4115 12.9927 51.6733 12.8635 51.9517L11.7498 51.554C11.9487 51.09 12.2139 50.7287 12.5453 50.4702C12.8801 50.2083 13.2446 50.026 13.639 49.9233C14.0368 49.8172 14.4279 49.7642 14.8123 49.7642C15.0576 49.7642 15.3393 49.794 15.6575 49.8537C15.979 49.91 16.2889 50.0277 16.5872 50.2067C16.8888 50.3857 17.139 50.6558 17.3379 51.017C17.5368 51.3783 17.6362 51.8622 17.6362 52.4688V57.5H16.4629V56.4659H16.4033C16.3237 56.6316 16.1911 56.8089 16.0055 56.9979C15.8199 57.1868 15.573 57.3475 15.2648 57.4801C14.9565 57.6127 14.5803 57.679 14.1362 57.679ZM14.3152 56.625C14.7792 56.625 15.1703 56.5339 15.4885 56.3516C15.81 56.1693 16.0519 55.9339 16.2143 55.6456C16.3801 55.3572 16.4629 55.054 16.4629 54.7358V53.6619C16.4132 53.7216 16.3038 53.7763 16.1348 53.826C15.9691 53.8724 15.7768 53.9138 15.5581 53.9503C15.3426 53.9834 15.1322 54.0133 14.9267 54.0398C14.7245 54.063 14.5605 54.0829 14.4345 54.0994C14.1296 54.1392 13.8445 54.2038 13.5794 54.2933C13.3176 54.3795 13.1054 54.5104 12.943 54.6861C12.7839 54.8584 12.7044 55.0937 12.7044 55.392C12.7044 55.7997 12.8552 56.108 13.1568 56.3168C13.4617 56.5223 13.8479 56.625 14.3152 56.625ZM19.7777 60.3636V49.8636H20.9112V51.0767H21.0504C21.1366 50.9441 21.2559 50.7751 21.4084 50.5696C21.5642 50.3608 21.7862 50.1752 22.0746 50.0128C22.3663 49.8471 22.7607 49.7642 23.2578 49.7642C23.9008 49.7642 24.4676 49.925 24.9581 50.2464C25.4486 50.5679 25.8315 51.0237 26.1066 51.6136C26.3817 52.2036 26.5192 52.8996 26.5192 53.7017C26.5192 54.5104 26.3817 55.2114 26.1066 55.8047C25.8315 56.3946 25.4503 56.852 24.9631 57.1768C24.4759 57.4983 23.9141 57.6591 23.2777 57.6591C22.7872 57.6591 22.3944 57.5779 22.0995 57.4155C21.8045 57.2498 21.5774 57.0625 21.4183 56.8537C21.2593 56.6416 21.1366 56.4659 21.0504 56.3267H20.951V60.3636H19.7777ZM20.9311 53.6818C20.9311 54.2585 21.0156 54.7673 21.1847 55.2081C21.3537 55.6456 21.6006 55.9886 21.9254 56.2372C22.2503 56.4825 22.648 56.6051 23.1186 56.6051C23.6092 56.6051 24.0185 56.4759 24.3466 56.2173C24.6781 55.9555 24.9266 55.6042 25.0924 55.1634C25.2614 54.7192 25.3459 54.2254 25.3459 53.6818C25.3459 53.1449 25.263 52.661 25.0973 52.2301C24.9349 51.7959 24.688 51.4529 24.3566 51.201C24.0284 50.9458 23.6158 50.8182 23.1186 50.8182C22.6414 50.8182 22.2403 50.9392 21.9155 51.1811C21.5907 51.4197 21.3454 51.7545 21.1797 52.1854C21.014 52.6129 20.9311 53.1117 20.9311 53.6818ZM28.309 57.5V49.8636H29.4425V51.017H29.522C29.6612 50.6392 29.9131 50.3326 30.2777 50.0973C30.6423 49.862 31.0533 49.7443 31.5107 49.7443C31.5968 49.7443 31.7046 49.746 31.8338 49.7493C31.9631 49.7526 32.0609 49.7576 32.1272 49.7642V50.9574C32.0874 50.9474 31.9962 50.9325 31.8537 50.9126C31.7145 50.8894 31.567 50.8778 31.4112 50.8778C31.04 50.8778 30.7086 50.9557 30.4169 51.1115C30.1286 51.264 29.8999 51.4761 29.7308 51.7479C29.5651 52.0163 29.4823 52.3229 29.4823 52.6676V57.5H28.309ZM33.518 57.5V49.8636H34.6913V57.5H33.518ZM34.1145 48.5909C33.8859 48.5909 33.6886 48.513 33.5229 48.3572C33.3605 48.2015 33.2793 48.0142 33.2793 47.7955C33.2793 47.5767 33.3605 47.3894 33.5229 47.2337C33.6886 47.0779 33.8859 47 34.1145 47C34.3432 47 34.5388 47.0779 34.7012 47.2337C34.8669 47.3894 34.9498 47.5767 34.9498 47.7955C34.9498 48.0142 34.8669 48.2015 34.7012 48.3572C34.5388 48.513 34.3432 48.5909 34.1145 48.5909ZM39.9425 57.6591C39.2266 57.6591 38.6101 57.4901 38.0931 57.152C37.576 56.8139 37.1783 56.3482 36.8999 55.755C36.6215 55.1617 36.4823 54.4839 36.4823 53.7216C36.4823 52.946 36.6248 52.2616 36.9098 51.6683C37.1982 51.0717 37.5992 50.6061 38.1129 50.2713C38.63 49.9332 39.2332 49.7642 39.9226 49.7642C40.4595 49.7642 40.9434 49.8636 41.3743 50.0625C41.8052 50.2614 42.1582 50.5398 42.4333 50.8977C42.7084 51.2557 42.879 51.6733 42.9453 52.1506H41.772C41.6826 51.8026 41.4837 51.4943 41.1754 51.2259C40.8705 50.9541 40.4595 50.8182 39.9425 50.8182C39.4851 50.8182 39.0841 50.9375 38.7394 51.1761C38.398 51.4115 38.1312 51.7446 37.9389 52.1754C37.75 52.603 37.6556 53.1051 37.6556 53.6818C37.6556 54.2718 37.7484 54.7855 37.934 55.223C38.1229 55.6605 38.388 56.0002 38.7294 56.2422C39.0741 56.4841 39.4785 56.6051 39.9425 56.6051C40.2474 56.6051 40.5242 56.5521 40.7727 56.446C41.0213 56.34 41.2318 56.1875 41.4041 55.9886C41.5765 55.7898 41.6991 55.5511 41.772 55.2727H42.9453C42.879 55.7235 42.715 56.1295 42.4531 56.4908C42.1946 56.8487 41.8516 57.1338 41.424 57.3459C40.9998 57.5547 40.5059 57.6591 39.9425 57.6591ZM47.7628 57.6591C47.0734 57.6591 46.4685 57.495 45.9482 57.1669C45.4311 56.8388 45.0268 56.3797 44.7351 55.7898C44.4468 55.1998 44.3026 54.5104 44.3026 53.7216C44.3026 52.9261 44.4468 52.2318 44.7351 51.6385C45.0268 51.0452 45.4311 50.5845 45.9482 50.2564C46.4685 49.9283 47.0734 49.7642 47.7628 49.7642C48.4522 49.7642 49.0554 49.9283 49.5725 50.2564C50.0928 50.5845 50.4972 51.0452 50.7855 51.6385C51.0772 52.2318 51.223 52.9261 51.223 53.7216C51.223 54.5104 51.0772 55.1998 50.7855 55.7898C50.4972 56.3797 50.0928 56.8388 49.5725 57.1669C49.0554 57.495 48.4522 57.6591 47.7628 57.6591ZM47.7628 56.6051C48.2865 56.6051 48.7174 56.4709 49.0554 56.2024C49.3935 55.9339 49.6437 55.581 49.8061 55.1435C49.9685 54.706 50.0497 54.232 50.0497 53.7216C50.0497 53.2112 49.9685 52.7356 49.8061 52.2947C49.6437 51.8539 49.3935 51.4976 49.0554 51.2259C48.7174 50.9541 48.2865 50.8182 47.7628 50.8182C47.2391 50.8182 46.8083 50.9541 46.4702 51.2259C46.1321 51.4976 45.8819 51.8539 45.7195 52.2947C45.5571 52.7356 45.4759 53.2112 45.4759 53.7216C45.4759 54.232 45.5571 54.706 45.7195 55.1435C45.8819 55.581 46.1321 55.9339 46.4702 56.2024C46.8083 56.4709 47.2391 56.6051 47.7628 56.6051ZM47.2259 48.8295L48.4389 46.5227H49.8111L48.26 48.8295H47.2259ZM53.014 57.5V49.8636H54.1476V51.017H54.2271C54.3663 50.6392 54.6182 50.3326 54.9828 50.0973C55.3474 49.862 55.7584 49.7443 56.2158 49.7443C56.3019 49.7443 56.4096 49.746 56.5389 49.7493C56.6682 49.7526 56.7659 49.7576 56.8322 49.7642V50.9574C56.7925 50.9474 56.7013 50.9325 56.5588 50.9126C56.4196 50.8894 56.2721 50.8778 56.1163 50.8778C55.7451 50.8778 55.4137 50.9557 55.122 51.1115C54.8337 51.264 54.605 51.4761 54.4359 51.7479C54.2702 52.0163 54.1873 52.3229 54.1873 52.6676V57.5H53.014ZM59.3963 52.9062V57.5H58.223V49.8636H59.3566V51.0568H59.456C59.635 50.669 59.9067 50.3575 60.2713 50.1222C60.6359 49.8835 61.1066 49.7642 61.6833 49.7642C62.2003 49.7642 62.6527 49.8703 63.0405 50.0824C63.4283 50.2912 63.7299 50.6094 63.9453 51.0369C64.1608 51.4612 64.2685 51.9981 64.2685 52.6477V57.5H63.0952V52.7273C63.0952 52.1274 62.9394 51.66 62.6279 51.3253C62.3163 50.9872 61.8888 50.8182 61.3452 50.8182C60.9707 50.8182 60.6359 50.8994 60.3409 51.0618C60.0493 51.2242 59.8189 51.4612 59.6499 51.7727C59.4808 52.0843 59.3963 52.4621 59.3963 52.9062ZM66.4125 57.5V49.8636H67.5858V57.5H66.4125ZM67.0091 48.5909C66.7804 48.5909 66.5832 48.513 66.4175 48.3572C66.2551 48.2015 66.1739 48.0142 66.1739 47.7955C66.1739 47.5767 66.2551 47.3894 66.4175 47.2337C66.5832 47.0779 66.7804 47 67.0091 47C67.2378 47 67.4333 47.0779 67.5957 47.2337C67.7614 47.3894 67.8443 47.5767 67.8443 47.7955C67.8443 48.0142 67.7614 48.2015 67.5957 48.3572C67.4333 48.513 67.2378 48.5909 67.0091 48.5909ZM72.837 57.6591C72.1476 57.6591 71.5428 57.495 71.0224 57.1669C70.5053 56.8388 70.101 56.3797 69.8093 55.7898C69.521 55.1998 69.3768 54.5104 69.3768 53.7216C69.3768 52.9261 69.521 52.2318 69.8093 51.6385C70.101 51.0452 70.5053 50.5845 71.0224 50.2564C71.5428 49.9283 72.1476 49.7642 72.837 49.7642C73.5264 49.7642 74.1296 49.9283 74.6467 50.2564C75.167 50.5845 75.5714 51.0452 75.8598 51.6385C76.1514 52.2318 76.2973 52.9261 76.2973 53.7216C76.2973 54.5104 76.1514 55.1998 75.8598 55.7898C75.5714 56.3797 75.167 56.8388 74.6467 57.1669C74.1296 57.495 73.5264 57.6591 72.837 57.6591ZM72.837 56.6051C73.3607 56.6051 73.7916 56.4709 74.1296 56.2024C74.4677 55.9339 74.7179 55.581 74.8803 55.1435C75.0428 54.706 75.124 54.232 75.124 53.7216C75.124 53.2112 75.0428 52.7356 74.8803 52.2947C74.7179 51.8539 74.4677 51.4976 74.1296 51.2259C73.7916 50.9541 73.3607 50.8182 72.837 50.8182C72.3134 50.8182 71.8825 50.9541 71.5444 51.2259C71.2063 51.4976 70.9561 51.8539 70.7937 52.2947C70.6313 52.7356 70.5501 53.2112 70.5501 53.7216C70.5501 54.232 70.6313 54.706 70.7937 55.1435C70.9561 55.581 71.2063 55.9339 71.5444 56.2024C71.8825 56.4709 72.3134 56.6051 72.837 56.6051Z" fill="#231F20"/>
</svg>
