<svg width="50" height="62" viewBox="0 0 50 62" fill="none" xmlns="http://www.w3.org/2000/svg">
<path d="M2.76898 47.3182L5.7917 55.8892H5.91102L8.93375 47.3182H10.2264L6.48773 57.5H5.215L1.47636 47.3182H2.76898ZM11.6532 57.5V49.8636H12.8265V57.5H11.6532ZM12.2498 48.5909C12.0211 48.5909 11.8239 48.513 11.6582 48.3572C11.4958 48.2015 11.4146 48.0142 11.4146 47.7955C11.4146 47.5767 11.4958 47.3894 11.6582 47.2337C11.8239 47.0779 12.0211 47 12.2498 47C12.4785 47 12.674 47.0779 12.8364 47.2337C13.0022 47.3894 13.085 47.5767 13.085 47.7955C13.085 48.0142 13.0022 48.2015 12.8364 48.3572C12.674 48.513 12.4785 48.5909 12.2498 48.5909ZM14.9755 57.5V49.8636H16.109V51.017H16.1885C16.3277 50.6392 16.5796 50.3326 16.9442 50.0973C17.3088 49.862 17.7198 49.7443 18.1772 49.7443C18.2634 49.7443 18.3711 49.746 18.5003 49.7493C18.6296 49.7526 18.7274 49.7576 18.7937 49.7642V50.9574C18.7539 50.9474 18.6627 50.9325 18.5202 50.9126C18.381 50.8894 18.2335 50.8778 18.0777 50.8778C17.7065 50.8778 17.3751 50.9557 17.0834 51.1115C16.7951 51.264 16.5664 51.4761 16.3973 51.7479C16.2316 52.0163 16.1488 52.3229 16.1488 52.6676V57.5H14.9755ZM23.0344 60.5227C22.4677 60.5227 21.9804 60.4498 21.5728 60.304C21.1651 60.1615 20.8254 59.9725 20.5536 59.7372C20.2851 59.5052 20.0714 59.2566 19.9123 58.9915L20.8469 58.3352C20.953 58.4744 21.0872 58.6335 21.2496 58.8125C21.412 58.9948 21.6341 59.1522 21.9158 59.2848C22.2009 59.4207 22.5737 59.4886 23.0344 59.4886C23.6509 59.4886 24.1597 59.3395 24.5607 59.0412C24.9617 58.7429 25.1623 58.2756 25.1623 57.6392V56.0881H25.0628C24.9767 56.2273 24.854 56.3996 24.6949 56.6051C24.5392 56.8073 24.3138 56.9879 24.0188 57.147C23.7271 57.3028 23.3327 57.3807 22.8356 57.3807C22.2191 57.3807 21.6656 57.2348 21.175 56.9432C20.6878 56.6515 20.3017 56.2273 20.0167 55.6705C19.7349 55.1136 19.5941 54.4375 19.5941 53.642C19.5941 52.8598 19.7316 52.1787 20.0067 51.5987C20.2818 51.0154 20.6646 50.5646 21.1552 50.2464C21.6457 49.925 22.2125 49.7642 22.8554 49.7642C23.3526 49.7642 23.747 49.8471 24.0387 50.0128C24.3337 50.1752 24.559 50.3608 24.7148 50.5696C24.8739 50.7751 24.9965 50.9441 25.0827 51.0767H25.202V49.8636H26.3356V57.7188C26.3356 58.375 26.1864 58.9086 25.8881 59.3196C25.5931 59.7339 25.1954 60.0372 24.6949 60.2294C24.1978 60.425 23.6443 60.5227 23.0344 60.5227ZM22.9947 56.3267C23.4653 56.3267 23.863 56.219 24.1878 56.0036C24.5126 55.7881 24.7596 55.4782 24.9286 55.0739C25.0976 54.6695 25.1822 54.1856 25.1822 53.6222C25.1822 53.072 25.0993 52.5864 24.9336 52.1655C24.7679 51.7446 24.5226 51.4148 24.1978 51.1761C23.873 50.9375 23.4719 50.8182 22.9947 50.8182C22.4975 50.8182 22.0832 50.9441 21.7518 51.196C21.4236 51.4479 21.1767 51.786 21.011 52.2102C20.8486 52.6345 20.7674 53.1051 20.7674 53.6222C20.7674 54.1525 20.8502 54.6214 21.016 55.0291C21.185 55.4335 21.4336 55.7517 21.7617 55.9837C22.0931 56.2124 22.5041 56.3267 22.9947 56.3267ZM31.685 57.6591C30.9492 57.6591 30.3145 57.4967 29.7809 57.1719C29.2506 56.8438 28.8412 56.3864 28.5529 55.7997C28.2679 55.2098 28.1253 54.5237 28.1253 53.7415C28.1253 52.9593 28.2679 52.2699 28.5529 51.6733C28.8412 51.0734 29.2423 50.6061 29.756 50.2713C30.2731 49.9332 30.8763 49.7642 31.5657 49.7642C31.9634 49.7642 32.3562 49.8305 32.7439 49.9631C33.1317 50.0956 33.4847 50.3111 33.8029 50.6094C34.1211 50.9044 34.3746 51.2955 34.5635 51.7827C34.7525 52.2699 34.8469 52.8698 34.8469 53.5824V54.0795H28.9606V53.0653H33.6537C33.6537 52.6345 33.5676 52.25 33.3952 51.9119C33.2262 51.5739 32.9842 51.3071 32.6694 51.1115C32.3578 50.916 31.9899 50.8182 31.5657 50.8182C31.0983 50.8182 30.694 50.9342 30.3526 51.1662C30.0145 51.3949 29.7544 51.6932 29.5721 52.0611C29.3898 52.429 29.2986 52.8234 29.2986 53.2443V53.9205C29.2986 54.4972 29.3981 54.986 29.5969 55.3871C29.7991 55.7848 30.0792 56.0881 30.4371 56.2969C30.7951 56.5024 31.211 56.6051 31.685 56.6051C31.9932 56.6051 32.2716 56.562 32.5202 56.4759C32.7721 56.3864 32.9892 56.2538 33.1715 56.0781C33.3538 55.8991 33.4947 55.6771 33.5941 55.4119L34.7276 55.7301C34.6083 56.1146 34.4078 56.4527 34.126 56.7443C33.8443 57.0327 33.4963 57.258 33.082 57.4205C32.6677 57.5795 32.202 57.6591 31.685 57.6591ZM36.6317 57.5V49.8636H37.7652V51.0568H37.8647C38.0238 50.6491 38.2806 50.3326 38.6353 50.1072C38.9899 49.8786 39.4158 49.7642 39.913 49.7642C40.4168 49.7642 40.836 49.8786 41.1708 50.1072C41.5089 50.3326 41.7724 50.6491 41.9613 51.0568H42.0408C42.2364 50.6624 42.5297 50.3492 42.9208 50.1172C43.3119 49.8819 43.7809 49.7642 44.3277 49.7642C45.0105 49.7642 45.569 49.978 46.0032 50.4055C46.4374 50.8298 46.6545 51.491 46.6545 52.3892V57.5H45.4812V52.3892C45.4812 51.8258 45.327 51.4231 45.0188 51.1811C44.7106 50.9392 44.3476 50.8182 43.93 50.8182C43.3931 50.8182 42.9771 50.9806 42.6822 51.3054C42.3872 51.6269 42.2397 52.0346 42.2397 52.5284V57.5H41.0465V52.2699C41.0465 51.8357 40.9056 51.486 40.6239 51.2209C40.3422 50.9524 39.9793 50.8182 39.5351 50.8182C39.2302 50.8182 38.9452 50.8994 38.68 51.0618C38.4182 51.2242 38.2061 51.4496 38.0437 51.7379C37.8846 52.023 37.805 52.3527 37.805 52.7273V57.5H36.6317Z" fill="#231F20"/>
<g filter="url(#filter0_d_1_2633)">
<path d="M39.0001 35.3001C42.1686 32.8171 42.1686 28.0884 42.1686 25.9341C42.1686 21.9007 38.3858 18.6311 33.7194 18.6311C32.2408 18.6311 30.7622 18.9962 29.4948 19.6535V11.3281C29.4948 8.30308 26.6577 5.85083 23.1579 5.85083C21.5737 5.85083 20.0951 6.3803 18.9333 7.27491C16.5253 5.41265 12.8921 5.41265 10.4841 7.27491C9.32235 6.36204 7.82262 5.85083 6.25952 5.85083V9.50233C7.42611 9.50233 8.37182 10.3197 8.37182 11.3281V29.5856H12.5964V11.3281C12.5964 10.3197 13.5421 9.50233 14.7087 9.50233C15.8753 9.50233 16.821 10.3197 16.821 11.3281V29.5856H21.0456V11.3281C21.0456 10.3197 21.9913 9.50233 23.1579 9.50233C24.3245 9.50233 25.2702 10.3197 25.2702 11.3281V25.9341C25.2702 28.0884 25.2702 32.8171 28.4387 35.3001C26.7911 36.0487 25.0167 36.5964 23.1579 36.8886V40.54C25.8828 40.54 31.2691 38.2396 33.7194 37.1259C36.1697 38.2396 41.556 40.54 44.2809 40.54V36.8886C42.4221 36.5964 40.6477 36.0487 39.0001 35.3001ZM33.7194 22.2826C36.0526 22.2826 37.944 23.9174 37.944 25.9341C37.944 31.2652 36.8033 33.2371 33.7194 33.2371C30.6354 33.2371 29.4948 31.2652 29.4948 25.9341C29.4948 23.9174 31.3862 22.2826 33.7194 22.2826Z" fill="#FF0A6B"/>
</g>
<defs>
<filter id="filter0_d_1_2633" x="3.25952" y="5.85083" width="44.0212" height="42.6892" filterUnits="userSpaceOnUse" color-interpolation-filters="sRGB">
<feFlood flood-opacity="0" result="BackgroundImageFix"/>
<feColorMatrix in="SourceAlpha" type="matrix" values="0 0 0 0 0 0 0 0 0 0 0 0 0 0 0 0 0 0 127 0" result="hardAlpha"/>
<feOffset dy="5"/>
<feGaussianBlur stdDeviation="1.5"/>
<feComposite in2="hardAlpha" operator="out"/>
<feColorMatrix type="matrix" values="0 0 0 0 0 0 0 0 0 0 0 0 0 0 0 0 0 0 0.0509804 0"/>
<feBlend mode="normal" in2="BackgroundImageFix" result="effect1_dropShadow_1_2633"/>
<feBlend mode="normal" in="SourceGraphic" in2="effect1_dropShadow_1_2633" result="shape"/>
</filter>
</defs>
</svg>
