<svg width="41" height="62" viewBox="0 0 41 62" fill="none" xmlns="http://www.w3.org/2000/svg">
<path d="M5.25945 57.5H3.96684L7.70548 47.3182H8.97821L12.7168 57.5H11.4242L8.38161 48.929H8.30207L5.25945 57.5ZM5.73673 53.5227H10.947V54.6165H5.73673V53.5227ZM7.80491 46.2841L9.01798 43.9773H10.3901L8.839 46.2841H7.80491ZM14.1437 57.5V49.8636H15.2772V51.017H15.3568C15.496 50.6392 15.7479 50.3326 16.1124 50.0973C16.477 49.862 16.888 49.7443 17.3454 49.7443C17.4316 49.7443 17.5393 49.746 17.6685 49.7493C17.7978 49.7526 17.8956 49.7576 17.9619 49.7642V50.9574C17.9221 50.9474 17.831 50.9325 17.6884 50.9126C17.5492 50.8894 17.4017 50.8778 17.246 50.8778C16.8747 50.8778 16.5433 50.9557 16.2516 51.1115C15.9633 51.264 15.7346 51.4761 15.5656 51.7479C15.3998 52.0163 15.317 52.3229 15.317 52.6676V57.5H14.1437ZM19.3527 57.5V49.8636H20.526V57.5H19.3527ZM19.9493 48.5909C19.7206 48.5909 19.5234 48.513 19.3576 48.3572C19.1952 48.2015 19.114 48.0142 19.114 47.7955C19.114 47.5767 19.1952 47.3894 19.3576 47.2337C19.5234 47.0779 19.7206 47 19.9493 47C20.178 47 20.3735 47.0779 20.5359 47.2337C20.7016 47.3894 20.7845 47.5767 20.7845 47.7955C20.7845 48.0142 20.7016 48.2015 20.5359 48.3572C20.3735 48.513 20.178 48.5909 19.9493 48.5909ZM25.8766 57.6591C25.1408 57.6591 24.5061 57.4967 23.9725 57.1719C23.4422 56.8438 23.0329 56.3864 22.7445 55.7997C22.4595 55.2098 22.317 54.5237 22.317 53.7415C22.317 52.9593 22.4595 52.2699 22.7445 51.6733C23.0329 51.0734 23.4339 50.6061 23.9477 50.2713C24.4647 49.9332 25.0679 49.7642 25.7573 49.7642C26.1551 49.7642 26.5478 49.8305 26.9356 49.9631C27.3234 50.0956 27.6764 50.3111 27.9945 50.6094C28.3127 50.9044 28.5663 51.2955 28.7552 51.7827C28.9441 52.2699 29.0386 52.8698 29.0386 53.5824V54.0795H23.1522V53.0653H27.8454C27.8454 52.6345 27.7592 52.25 27.5869 51.9119C27.4178 51.5739 27.1759 51.3071 26.861 51.1115C26.5495 50.916 26.1816 50.8182 25.7573 50.8182C25.29 50.8182 24.8856 50.9342 24.5443 51.1662C24.2062 51.3949 23.946 51.6932 23.7637 52.0611C23.5814 52.429 23.4903 52.8234 23.4903 53.2443V53.9205C23.4903 54.4972 23.5897 54.986 23.7886 55.3871C23.9908 55.7848 24.2708 56.0881 24.6288 56.2969C24.9867 56.5024 25.4027 56.6051 25.8766 56.6051C26.1849 56.6051 26.4633 56.562 26.7119 56.4759C26.9638 56.3864 27.1809 56.2538 27.3631 56.0781C27.5454 55.8991 27.6863 55.6771 27.7857 55.4119L28.9193 55.7301C28.7999 56.1146 28.5994 56.4527 28.3177 56.7443C28.036 57.0327 27.688 57.258 27.2737 57.4205C26.8594 57.5795 26.3937 57.6591 25.8766 57.6591ZM36.2325 51.5739L35.1785 51.8722C35.1122 51.6965 35.0144 51.5258 34.8852 51.3601C34.7592 51.1911 34.5869 51.0518 34.3681 50.9425C34.1494 50.8331 33.8693 50.7784 33.5279 50.7784C33.0606 50.7784 32.6712 50.8861 32.3596 51.1016C32.0514 51.3137 31.8972 51.5838 31.8972 51.9119C31.8972 52.2036 32.0033 52.4339 32.2154 52.603C32.4275 52.772 32.759 52.9129 33.2097 53.0256L34.3433 53.304C35.026 53.4697 35.5348 53.7232 35.8695 54.0646C36.2043 54.4027 36.3717 54.8385 36.3717 55.3722C36.3717 55.8097 36.2457 56.2008 35.9938 56.5455C35.7453 56.8902 35.3972 57.1619 34.9498 57.3608C34.5024 57.5597 33.982 57.6591 33.3887 57.6591C32.6098 57.6591 31.9652 57.4901 31.4548 57.152C30.9444 56.8139 30.6212 56.3201 30.4853 55.6705L31.5989 55.392C31.705 55.803 31.9055 56.1113 32.2005 56.3168C32.4988 56.5223 32.8882 56.625 33.3688 56.625C33.9157 56.625 34.3499 56.509 34.6714 56.277C34.9962 56.0417 35.1586 55.7599 35.1586 55.4318C35.1586 55.1667 35.0658 54.9446 34.8802 54.7656C34.6946 54.5833 34.4095 54.4474 34.0251 54.358L32.7524 54.0597C32.053 53.8939 31.5393 53.6371 31.2112 53.2891C30.8863 52.9377 30.7239 52.4986 30.7239 51.9716C30.7239 51.5407 30.8449 51.1596 31.0869 50.8281C31.3321 50.4967 31.6652 50.2365 32.0862 50.0476C32.5104 49.8587 32.991 49.7642 33.5279 49.7642C34.2836 49.7642 34.8769 49.9299 35.3078 50.2614C35.7419 50.5928 36.0502 51.0303 36.2325 51.5739Z" fill="#231F20"/>
<g filter="url(#filter0_d_1_2598)">
<path d="M27.0653 3.83569C25.314 3.83569 23.5795 4.32651 22.0617 5.30815C21.4613 5.65355 20.8942 6.12619 20.3939 6.63519C19.8935 6.12619 19.3264 5.65355 18.726 5.30815C17.2083 4.32651 15.4737 3.83569 13.7225 3.83569C8.19567 3.83569 3.71533 8.71898 3.71533 14.7428C3.71533 20.7667 8.19567 25.6499 13.7225 25.6499V22.0142C10.0379 22.0142 7.05104 18.7587 7.05104 14.7428C7.05104 10.7269 10.0379 7.4714 13.7225 7.4714C15.3903 7.4714 17.0582 8.18036 18.3091 9.47104C18.4592 9.61647 18.5926 9.78007 18.726 9.94368V40.1928H22.0617V9.94368C22.1952 9.78007 22.3286 9.61647 22.4787 9.47104C25.1473 6.7079 29.3669 6.81697 31.9187 9.74372C34.4539 12.6523 34.3371 17.2515 31.6686 20.0146C30.401 21.3053 28.7832 22.0142 27.0653 22.0142V25.6499C32.5921 25.6499 37.0724 20.7667 37.0724 14.7428C37.0724 8.71898 32.5921 3.83569 27.0653 3.83569Z" fill="#FF0A6B"/>
</g>
<defs>
<filter id="filter0_d_1_2598" x="0.715332" y="3.83569" width="39.3572" height="44.3572" filterUnits="userSpaceOnUse" color-interpolation-filters="sRGB">
<feFlood flood-opacity="0" result="BackgroundImageFix"/>
<feColorMatrix in="SourceAlpha" type="matrix" values="0 0 0 0 0 0 0 0 0 0 0 0 0 0 0 0 0 0 127 0" result="hardAlpha"/>
<feOffset dy="5"/>
<feGaussianBlur stdDeviation="1.5"/>
<feComposite in2="hardAlpha" operator="out"/>
<feColorMatrix type="matrix" values="0 0 0 0 0 0 0 0 0 0 0 0 0 0 0 0 0 0 0.0509804 0"/>
<feBlend mode="normal" in2="BackgroundImageFix" result="effect1_dropShadow_1_2598"/>
<feBlend mode="normal" in="SourceGraphic" in2="effect1_dropShadow_1_2598" result="shape"/>
</filter>
</defs>
</svg>
