<svg width="44" height="62" viewBox="0 0 44 62" fill="none" xmlns="http://www.w3.org/2000/svg">
<path d="M1.29887 57.5V47.3182H4.73921C5.53798 47.3182 6.19092 47.4624 6.69802 47.7507C7.20844 48.0357 7.58628 48.4219 7.83154 48.9091C8.07681 49.3963 8.19944 49.9399 8.19944 50.5398C8.19944 51.1397 8.07681 51.6849 7.83154 52.1754C7.58959 52.666 7.21507 53.0571 6.70796 53.3487C6.20086 53.6371 5.55124 53.7812 4.7591 53.7812H2.29319V52.6875H4.71933C5.2662 52.6875 5.70536 52.593 6.0368 52.4041C6.36824 52.2152 6.60853 51.96 6.75768 51.6385C6.91014 51.3137 6.98637 50.9474 6.98637 50.5398C6.98637 50.1321 6.91014 49.7675 6.75768 49.446C6.60853 49.1245 6.36658 48.8726 6.03183 48.6903C5.69707 48.5047 5.25294 48.4119 4.69944 48.4119H2.53183V57.5H1.29887ZM13.1462 57.6591C12.4104 57.6591 11.7757 57.4967 11.2421 57.1719C10.7118 56.8438 10.3024 56.3864 10.0141 55.7997C9.72903 55.2098 9.58651 54.5237 9.58651 53.7415C9.58651 52.9593 9.72903 52.2699 10.0141 51.6733C10.3024 51.0734 10.7035 50.6061 11.2172 50.2713C11.7342 49.9332 12.3375 49.7642 13.0269 49.7642C13.4246 49.7642 13.8173 49.8305 14.2051 49.9631C14.5929 50.0956 14.9459 50.3111 15.2641 50.6094C15.5823 50.9044 15.8358 51.2955 16.0247 51.7827C16.2136 52.2699 16.3081 52.8698 16.3081 53.5824V54.0795H10.4217V53.0653H15.1149C15.1149 52.6345 15.0287 52.25 14.8564 51.9119C14.6874 51.5739 14.4454 51.3071 14.1305 51.1115C13.819 50.916 13.4511 50.8182 13.0269 50.8182C12.5595 50.8182 12.1552 50.9342 11.8138 51.1662C11.4757 51.3949 11.2155 51.6932 11.0332 52.0611C10.851 52.429 10.7598 52.8234 10.7598 53.2443V53.9205C10.7598 54.4972 10.8592 54.986 11.0581 55.3871C11.2603 55.7848 11.5403 56.0881 11.8983 56.2969C12.2563 56.5024 12.6722 56.6051 13.1462 56.6051C13.4544 56.6051 13.7328 56.562 13.9814 56.4759C14.2333 56.3864 14.4504 56.2538 14.6327 56.0781C14.815 55.8991 14.9558 55.6771 15.0553 55.4119L16.1888 55.7301C16.0695 56.1146 15.8689 56.4527 15.5872 56.7443C15.3055 57.0327 14.9575 57.258 14.5432 57.4205C14.1289 57.5795 13.6632 57.6591 13.1462 57.6591ZM18.0929 57.5V49.8636H19.2662V57.5H18.0929ZM18.6895 48.5909C18.4608 48.5909 18.2636 48.513 18.0979 48.3572C17.9355 48.2015 17.8543 48.0142 17.8543 47.7955C17.8543 47.5767 17.9355 47.3894 18.0979 47.2337C18.2636 47.0779 18.4608 47 18.6895 47C18.9182 47 19.1137 47.0779 19.2761 47.2337C19.4419 47.3894 19.5247 47.5767 19.5247 47.7955C19.5247 48.0142 19.4419 48.2015 19.2761 48.3572C19.1137 48.513 18.9182 48.5909 18.6895 48.5909ZM22.2902 49.8636L24.1197 52.9858L25.9493 49.8636H27.3015L24.8356 53.6818L27.3015 57.5H25.9493L24.1197 54.5369L22.2902 57.5H20.9379L23.364 53.6818L20.9379 49.8636H22.2902ZM31.863 57.6591C31.1272 57.6591 30.4925 57.4967 29.9589 57.1719C29.4285 56.8438 29.0192 56.3864 28.7309 55.7997C28.4458 55.2098 28.3033 54.5237 28.3033 53.7415C28.3033 52.9593 28.4458 52.2699 28.7309 51.6733C29.0192 51.0734 29.4203 50.6061 29.934 50.2713C30.451 49.9332 31.0543 49.7642 31.7437 49.7642C32.1414 49.7642 32.5341 49.8305 32.9219 49.9631C33.3097 50.0956 33.6627 50.3111 33.9809 50.6094C34.2991 50.9044 34.5526 51.2955 34.7415 51.7827C34.9304 52.2699 35.0249 52.8698 35.0249 53.5824V54.0795H29.1385V53.0653H33.8317C33.8317 52.6345 33.7455 52.25 33.5732 51.9119C33.4042 51.5739 33.1622 51.3071 32.8473 51.1115C32.5358 50.916 32.1679 50.8182 31.7437 50.8182C31.2763 50.8182 30.872 50.9342 30.5306 51.1662C30.1925 51.3949 29.9323 51.6932 29.75 52.0611C29.5678 52.429 29.4766 52.8234 29.4766 53.2443V53.9205C29.4766 54.4972 29.576 54.986 29.7749 55.3871C29.9771 55.7848 30.2571 56.0881 30.6151 56.2969C30.9731 56.5024 31.389 56.6051 31.863 56.6051C32.1712 56.6051 32.4496 56.562 32.6982 56.4759C32.9501 56.3864 33.1672 56.2538 33.3495 56.0781C33.5318 55.8991 33.6726 55.6771 33.7721 55.4119L34.9056 55.7301C34.7863 56.1146 34.5857 56.4527 34.304 56.7443C34.0223 57.0327 33.6743 57.258 33.26 57.4205C32.8457 57.5795 32.38 57.6591 31.863 57.6591ZM42.2188 51.5739L41.1648 51.8722C41.0985 51.6965 41.0008 51.5258 40.8715 51.3601C40.7455 51.1911 40.5732 51.0518 40.3544 50.9425C40.1357 50.8331 39.8556 50.7784 39.5142 50.7784C39.0469 50.7784 38.6575 50.8861 38.3459 51.1016C38.0377 51.3137 37.8836 51.5838 37.8836 51.9119C37.8836 52.2036 37.9896 52.4339 38.2017 52.603C38.4139 52.772 38.7453 52.9129 39.1961 53.0256L40.3296 53.304C41.0124 53.4697 41.5211 53.7232 41.8559 54.0646C42.1906 54.4027 42.358 54.8385 42.358 55.3722C42.358 55.8097 42.2321 56.2008 41.9802 56.5455C41.7316 56.8902 41.3836 57.1619 40.9361 57.3608C40.4887 57.5597 39.9683 57.6591 39.375 57.6591C38.5962 57.6591 37.9515 57.4901 37.4411 57.152C36.9307 56.8139 36.6075 56.3201 36.4716 55.6705L37.5853 55.392C37.6913 55.803 37.8919 56.1113 38.1868 56.3168C38.4851 56.5223 38.8746 56.625 39.3552 56.625C39.902 56.625 40.3362 56.509 40.6577 56.277C40.9825 56.0417 41.1449 55.7599 41.1449 55.4318C41.1449 55.1667 41.0521 54.9446 40.8665 54.7656C40.6809 54.5833 40.3959 54.4474 40.0114 54.358L38.7387 54.0597C38.0393 53.8939 37.5256 53.6371 37.1975 53.2891C36.8727 52.9377 36.7103 52.4986 36.7103 51.9716C36.7103 51.5407 36.8312 51.1596 37.0732 50.8281C37.3185 50.4967 37.6516 50.2365 38.0725 50.0476C38.4967 49.8587 38.9773 49.7642 39.5142 49.7642C40.2699 49.7642 40.8632 49.9299 41.2941 50.2614C41.7283 50.5928 42.0365 51.0303 42.2188 51.5739Z" fill="#231F20"/>
<path d="M37.0214 20.0823H33.1881C33.3989 14.975 34.5872 9.94029 36.6572 5.21461L33.1881 3.83325C30.9072 8.99516 29.6039 14.4842 29.3547 20.0823H14.0214C13.7722 14.4842 12.4689 8.99516 10.1881 3.83325L6.62307 5.21461C8.7314 9.92212 9.9389 14.9568 10.1881 20.0823H6.35474V23.7175H10.1881C9.97724 28.8249 8.7889 33.8595 6.7189 38.5852L10.1881 39.9666C12.4689 34.8047 13.7722 29.3156 14.0214 23.7175H29.3547C29.6039 29.3156 30.9072 34.8047 33.1881 39.9666L36.7531 38.5852C34.6447 33.8777 33.4372 28.843 33.1881 23.7175H37.0214V20.0823Z" fill="#FF0A6B"/>
</svg>
