<svg width="40" height="62" viewBox="0 0 40 62" fill="none" xmlns="http://www.w3.org/2000/svg">
<path d="M32.906 29.2332V32.8874H21.2831V29.0688C26.2643 28.0639 29.5187 22.8385 28.6055 17.3572C27.6923 11.876 22.9435 8.2949 17.9623 9.2998C12.981 10.323 9.7266 15.5301 10.6398 21.0114C11.3206 25.104 14.2429 28.3197 17.9623 29.0688V32.8874H6.33936V29.2332H11.1878C8.61412 26.6571 7.16956 23.0029 7.16956 19.1843C7.16956 11.6163 12.745 5.4812 19.6227 5.4812C26.5003 5.4812 32.0758 11.6163 32.0758 19.1843C32.0758 23.0029 30.6312 26.6571 28.0576 29.2332H32.906ZM32.906 34.7145H6.33936V38.3686H32.906V34.7145Z" fill="#FF0A6B"/>
<path d="M4.43632 57.5V47.3182H5.66928V56.4062H10.4022V57.5H4.43632ZM12.1522 57.5V49.8636H13.3255V57.5H12.1522ZM12.7488 48.5909C12.5201 48.5909 12.3229 48.513 12.1572 48.3572C11.9948 48.2015 11.9136 48.0142 11.9136 47.7955C11.9136 47.5767 11.9948 47.3894 12.1572 47.2337C12.3229 47.0779 12.5201 47 12.7488 47C12.9775 47 13.1731 47.0779 13.3355 47.2337C13.5012 47.3894 13.5841 47.5767 13.5841 47.7955C13.5841 48.0142 13.5012 48.2015 13.3355 48.3572C13.1731 48.513 12.9775 48.5909 12.7488 48.5909ZM15.6336 57.5V47.3182H16.8069V51.0767H16.9063C16.9925 50.9441 17.1118 50.7751 17.2643 50.5696C17.42 50.3608 17.6421 50.1752 17.9305 50.0128C18.2221 49.8471 18.6165 49.7642 19.1137 49.7642C19.7567 49.7642 20.3235 49.925 20.814 50.2464C21.3045 50.5679 21.6873 51.0237 21.9624 51.6136C22.2375 52.2036 22.3751 52.8996 22.3751 53.7017C22.3751 54.5104 22.2375 55.2114 21.9624 55.8047C21.6873 56.3946 21.3062 56.852 20.819 57.1768C20.3317 57.4983 19.77 57.6591 19.1336 57.6591C18.6431 57.6591 18.2503 57.5779 17.9553 57.4155C17.6603 57.2498 17.4333 57.0625 17.2742 56.8537C17.1151 56.6416 16.9925 56.4659 16.9063 56.3267H16.7671V57.5H15.6336ZM16.787 53.6818C16.787 54.2585 16.8715 54.7673 17.0405 55.2081C17.2096 55.6456 17.4565 55.9886 17.7813 56.2372C18.1061 56.4825 18.5039 56.6051 18.9745 56.6051C19.465 56.6051 19.8744 56.4759 20.2025 56.2173C20.5339 55.9555 20.7825 55.6042 20.9482 55.1634C21.1173 54.7192 21.2018 54.2254 21.2018 53.6818C21.2018 53.1449 21.1189 52.661 20.9532 52.2301C20.7908 51.7959 20.5439 51.4529 20.2124 51.201C19.8843 50.9458 19.4717 50.8182 18.9745 50.8182C18.4972 50.8182 18.0962 50.9392 17.7714 51.1811C17.4466 51.4197 17.2013 51.7545 17.0356 52.1854C16.8699 52.6129 16.787 53.1117 16.787 53.6818ZM24.1698 57.5V49.8636H25.3033V51.017H25.3829C25.5221 50.6392 25.774 50.3326 26.1386 50.0973C26.5031 49.862 26.9141 49.7443 27.3715 49.7443C27.4577 49.7443 27.5654 49.746 27.6947 49.7493C27.8239 49.7526 27.9217 49.7576 27.988 49.7642V50.9574C27.9482 50.9474 27.8571 50.9325 27.7146 50.9126C27.5754 50.8894 27.4279 50.8778 27.2721 50.8778C26.9009 50.8778 26.5694 50.9557 26.2778 51.1115C25.9894 51.264 25.7607 51.4761 25.5917 51.7479C25.426 52.0163 25.3431 52.3229 25.3431 52.6676V57.5H24.1698ZM31.626 57.679C31.1421 57.679 30.7029 57.5878 30.3085 57.4055C29.9141 57.2199 29.6009 56.9531 29.3689 56.6051C29.1368 56.2538 29.0208 55.8295 29.0208 55.3324C29.0208 54.8949 29.107 54.5402 29.2794 54.2685C29.4517 53.9934 29.6821 53.7779 29.9704 53.6222C30.2588 53.4664 30.5769 53.3504 30.925 53.2741C31.2763 53.1946 31.6293 53.1316 31.9839 53.0852C32.4479 53.0256 32.8241 52.9808 33.1125 52.951C33.4041 52.9179 33.6162 52.8632 33.7488 52.7869C33.8847 52.7107 33.9527 52.5781 33.9527 52.3892V52.3494C33.9527 51.8589 33.8184 51.4777 33.55 51.206C33.2848 50.9342 32.8821 50.7983 32.3419 50.7983C31.7817 50.7983 31.3426 50.9209 31.0244 51.1662C30.7062 51.4115 30.4825 51.6733 30.3532 51.9517L29.2396 51.554C29.4385 51.09 29.7036 50.7287 30.035 50.4702C30.3698 50.2083 30.7344 50.026 31.1288 49.9233C31.5265 49.8172 31.9176 49.7642 32.3021 49.7642C32.5474 49.7642 32.8291 49.794 33.1473 49.8537C33.4688 49.91 33.7787 50.0277 34.0769 50.2067C34.3786 50.3857 34.6288 50.6558 34.8277 51.017C35.0265 51.3783 35.126 51.8622 35.126 52.4688V57.5H33.9527V56.4659H33.893C33.8135 56.6316 33.6809 56.8089 33.4953 56.9979C33.3097 57.1868 33.0627 57.3475 32.7545 57.4801C32.4463 57.6127 32.0701 57.679 31.626 57.679ZM31.8049 56.625C32.2689 56.625 32.66 56.5339 32.9782 56.3516C33.2997 56.1693 33.5417 55.9339 33.7041 55.6456C33.8698 55.3572 33.9527 55.054 33.9527 54.7358V53.6619C33.9029 53.7216 33.7936 53.7763 33.6245 53.826C33.4588 53.8724 33.2666 53.9138 33.0478 53.9503C32.8324 53.9834 32.6219 54.0133 32.4164 54.0398C32.2143 54.063 32.0502 54.0829 31.9243 54.0994C31.6193 54.1392 31.3343 54.2038 31.0691 54.2933C30.8073 54.3795 30.5952 54.5104 30.4328 54.6861C30.2737 54.8584 30.1941 55.0937 30.1941 55.392C30.1941 55.7997 30.3449 56.108 30.6466 56.3168C30.9515 56.5223 31.3376 56.625 31.8049 56.625Z" fill="#231F20"/>
</svg>
