<svg width="68" height="62" viewBox="0 0 68 62" fill="none" xmlns="http://www.w3.org/2000/svg">
<path d="M46.5136 26.185L43.3753 28.7682L46.2484 31.1148H42.7343C40.2931 31.1148 38.3142 29.4859 38.3142 27.4766V9.28547C38.3142 6.27146 35.3457 3.82812 31.6839 3.82813C30.0263 3.82813 28.4793 4.35567 27.2637 5.24703C24.7442 3.39154 20.9429 3.39154 18.4234 5.24703C17.2078 4.33748 15.6386 3.82813 14.0032 3.82813V7.46635C15.2238 7.46635 16.2133 8.2808 16.2133 9.28547V27.4766H20.6334V9.28547C20.6334 8.2808 21.6229 7.46635 22.8435 7.46635C24.0641 7.46635 25.0536 8.2808 25.0536 9.28547V27.4766H29.4738V9.28547C29.4738 8.2808 30.4633 7.46635 31.6839 7.46635C32.9045 7.46635 33.894 8.2808 33.894 9.28547V27.4766C33.894 31.4953 37.8519 34.7531 42.7343 34.7531H46.2484L43.3753 37.0997L46.5136 39.6829L54.6909 32.934L46.5136 26.185Z" fill="#FF0A6B"/>
<path d="M1.77495 57.5V47.3182H7.91983V48.4119H3.0079V51.8523H7.60165V52.946H3.0079V56.4062H7.99938V57.5H1.77495ZM15.3921 51.5739L14.3382 51.8722C14.2719 51.6965 14.1741 51.5258 14.0448 51.3601C13.9189 51.1911 13.7465 51.0518 13.5278 50.9425C13.309 50.8331 13.029 50.7784 12.6876 50.7784C12.2203 50.7784 11.8308 50.8861 11.5193 51.1016C11.211 51.3137 11.0569 51.5838 11.0569 51.9119C11.0569 52.2036 11.163 52.4339 11.3751 52.603C11.5872 52.772 11.9186 52.9129 12.3694 53.0256L13.5029 53.304C14.1857 53.4697 14.6945 53.7232 15.0292 54.0646C15.364 54.4027 15.5313 54.8385 15.5313 55.3722C15.5313 55.8097 15.4054 56.2008 15.1535 56.5455C14.9049 56.8902 14.5569 57.1619 14.1095 57.3608C13.662 57.5597 13.1417 57.6591 12.5484 57.6591C11.7695 57.6591 11.1249 57.4901 10.6144 57.152C10.104 56.8139 9.78087 56.3201 9.64498 55.6705L10.7586 55.392C10.8647 55.803 11.0652 56.1113 11.3602 56.3168C11.6585 56.5223 12.0479 56.625 12.5285 56.625C13.0754 56.625 13.5096 56.509 13.8311 56.277C14.1559 56.0417 14.3183 55.7599 14.3183 55.4318C14.3183 55.1667 14.2255 54.9446 14.0399 54.7656C13.8543 54.5833 13.5692 54.4474 13.1847 54.358L11.912 54.0597C11.2127 53.8939 10.699 53.6371 10.3708 53.2891C10.046 52.9377 9.88361 52.4986 9.88361 51.9716C9.88361 51.5407 10.0046 51.1596 10.2465 50.8281C10.4918 50.4967 10.8249 50.2365 11.2458 50.0476C11.6701 49.8587 12.1507 49.7642 12.6876 49.7642C13.4433 49.7642 14.0365 49.9299 14.4674 50.2614C14.9016 50.5928 15.2098 51.0303 15.3921 51.5739ZM20.3998 57.6591C19.6839 57.6591 19.0674 57.4901 18.5503 57.152C18.0333 56.8139 17.6356 56.3482 17.3572 55.755C17.0787 55.1617 16.9395 54.4839 16.9395 53.7216C16.9395 52.946 17.0821 52.2616 17.3671 51.6683C17.6555 51.0717 18.0565 50.6061 18.5702 50.2713C19.0873 49.9332 19.6905 49.7642 20.3799 49.7642C20.9168 49.7642 21.4007 49.8636 21.8316 50.0625C22.2625 50.2614 22.6154 50.5398 22.8905 50.8977C23.1656 51.2557 23.3363 51.6733 23.4026 52.1506H22.2293C22.1398 51.8026 21.941 51.4943 21.6327 51.2259C21.3278 50.9541 20.9168 50.8182 20.3998 50.8182C19.9424 50.8182 19.5413 50.9375 19.1966 51.1761C18.8553 51.4115 18.5885 51.7446 18.3962 52.1754C18.2073 52.603 18.1128 53.1051 18.1128 53.6818C18.1128 54.2718 18.2056 54.7855 18.3912 55.223C18.5802 55.6605 18.8453 56.0002 19.1867 56.2422C19.5314 56.4841 19.9358 56.6051 20.3998 56.6051C20.7047 56.6051 20.9814 56.5521 21.23 56.446C21.4786 56.34 21.6891 56.1875 21.8614 55.9886C22.0338 55.7898 22.1564 55.5511 22.2293 55.2727H23.4026C23.3363 55.7235 23.1723 56.1295 22.9104 56.4908C22.6519 56.8487 22.3089 57.1338 21.8813 57.3459C21.4571 57.5547 20.9632 57.6591 20.3998 57.6591ZM28.2201 57.6591C27.5307 57.6591 26.9258 57.495 26.4055 57.1669C25.8884 56.8388 25.484 56.3797 25.1924 55.7898C24.904 55.1998 24.7599 54.5104 24.7599 53.7216C24.7599 52.9261 24.904 52.2318 25.1924 51.6385C25.484 51.0452 25.8884 50.5845 26.4055 50.2564C26.9258 49.9283 27.5307 49.7642 28.2201 49.7642C28.9095 49.7642 29.5127 49.9283 30.0297 50.2564C30.5501 50.5845 30.9545 51.0452 31.2428 51.6385C31.5345 52.2318 31.6803 52.9261 31.6803 53.7216C31.6803 54.5104 31.5345 55.1998 31.2428 55.7898C30.9545 56.3797 30.5501 56.8388 30.0297 57.1669C29.5127 57.495 28.9095 57.6591 28.2201 57.6591ZM28.2201 56.6051C28.7438 56.6051 29.1746 56.4709 29.5127 56.2024C29.8508 55.9339 30.101 55.581 30.2634 55.1435C30.4258 54.706 30.507 54.232 30.507 53.7216C30.507 53.2112 30.4258 52.7356 30.2634 52.2947C30.101 51.8539 29.8508 51.4976 29.5127 51.2259C29.1746 50.9541 28.7438 50.8182 28.2201 50.8182C27.6964 50.8182 27.2655 50.9541 26.9275 51.2259C26.5894 51.4976 26.3392 51.8539 26.1768 52.2947C26.0144 52.7356 25.9331 53.2112 25.9331 53.7216C25.9331 54.232 26.0144 54.706 26.1768 55.1435C26.3392 55.581 26.5894 55.9339 26.9275 56.2024C27.2655 56.4709 27.6964 56.6051 28.2201 56.6051ZM33.4713 57.5V49.8636H34.6048V51.017H34.6844C34.8236 50.6392 35.0755 50.3326 35.4401 50.0973C35.8047 49.862 36.2156 49.7443 36.673 49.7443C36.7592 49.7443 36.8669 49.746 36.9962 49.7493C37.1254 49.7526 37.2232 49.7576 37.2895 49.7642V50.9574C37.2497 50.9474 37.1586 50.9325 37.0161 50.9126C36.8769 50.8894 36.7294 50.8778 36.5736 50.8778C36.2024 50.8778 35.8709 50.9557 35.5793 51.1115C35.2909 51.264 35.0622 51.4761 34.8932 51.7479C34.7275 52.0163 34.6446 52.3229 34.6446 52.6676V57.5H33.4713ZM38.6803 60.3636V49.8636H39.8138V51.0767H39.953C40.0392 50.9441 40.1585 50.7751 40.311 50.5696C40.4668 50.3608 40.6888 50.1752 40.9772 50.0128C41.2689 49.8471 41.6633 49.7642 42.1604 49.7642C42.8034 49.7642 43.3702 49.925 43.8607 50.2464C44.3512 50.5679 44.734 51.0237 45.0091 51.6136C45.2842 52.2036 45.4218 52.8996 45.4218 53.7017C45.4218 54.5104 45.2842 55.2114 45.0091 55.8047C44.734 56.3946 44.3529 56.852 43.8657 57.1768C43.3785 57.4983 42.8167 57.6591 42.1803 57.6591C41.6898 57.6591 41.297 57.5779 41.002 57.4155C40.7071 57.2498 40.48 57.0625 40.3209 56.8537C40.1618 56.6416 40.0392 56.4659 39.953 56.3267H39.8536V60.3636H38.6803ZM39.8337 53.6818C39.8337 54.2585 39.9182 54.7673 40.0873 55.2081C40.2563 55.6456 40.5032 55.9886 40.828 56.2372C41.1528 56.4825 41.5506 56.6051 42.0212 56.6051C42.5117 56.6051 42.9211 56.4759 43.2492 56.2173C43.5806 55.9555 43.8292 55.6042 43.9949 55.1634C44.164 54.7192 44.2485 54.2254 44.2485 53.6818C44.2485 53.1449 44.1656 52.661 43.9999 52.2301C43.8375 51.7959 43.5906 51.4529 43.2591 51.201C42.931 50.9458 42.5184 50.8182 42.0212 50.8182C41.5439 50.8182 41.1429 50.9392 40.8181 51.1811C40.4933 51.4197 40.248 51.7545 40.0823 52.1854C39.9166 52.6129 39.8337 53.1117 39.8337 53.6818ZM47.2116 57.5V49.8636H48.3849V57.5H47.2116ZM47.8081 48.5909C47.5795 48.5909 47.3823 48.513 47.2165 48.3572C47.0541 48.2015 46.9729 48.0142 46.9729 47.7955C46.9729 47.5767 47.0541 47.3894 47.2165 47.2337C47.3823 47.0779 47.5795 47 47.8081 47C48.0368 47 48.2324 47.0779 48.3948 47.2337C48.5605 47.3894 48.6434 47.5767 48.6434 47.7955C48.6434 48.0142 48.5605 48.2015 48.3948 48.3572C48.2324 48.513 48.0368 48.5909 47.8081 48.5909ZM52.781 57.679C52.2971 57.679 51.8579 57.5878 51.4635 57.4055C51.0691 57.2199 50.7559 56.9531 50.5239 56.6051C50.2919 56.2538 50.1759 55.8295 50.1759 55.3324C50.1759 54.8949 50.262 54.5402 50.4344 54.2685C50.6067 53.9934 50.8371 53.7779 51.1254 53.6222C51.4138 53.4664 51.732 53.3504 52.08 53.2741C52.4313 53.1946 52.7843 53.1316 53.1389 53.0852C53.603 53.0256 53.9791 52.9808 54.2675 52.951C54.5592 52.9179 54.7713 52.8632 54.9039 52.7869C55.0397 52.7107 55.1077 52.5781 55.1077 52.3892V52.3494C55.1077 51.8589 54.9735 51.4777 54.705 51.206C54.4398 50.9342 54.0371 50.7983 53.4969 50.7983C52.9368 50.7983 52.4976 50.9209 52.1794 51.1662C51.8612 51.4115 51.6375 51.6733 51.5083 51.9517L50.3946 51.554C50.5935 51.09 50.8586 50.7287 51.1901 50.4702C51.5248 50.2083 51.8894 50.026 52.2838 49.9233C52.6816 49.8172 53.0727 49.7642 53.4571 49.7642C53.7024 49.7642 53.9841 49.794 54.3023 49.8537C54.6238 49.91 54.9337 50.0277 55.232 50.2067C55.5336 50.3857 55.7838 50.6558 55.9827 51.017C56.1816 51.3783 56.281 51.8622 56.281 52.4688V57.5H55.1077V56.4659H55.048C54.9685 56.6316 54.8359 56.8089 54.6503 56.9979C54.4647 57.1868 54.2178 57.3475 53.9095 57.4801C53.6013 57.6127 53.2251 57.679 52.781 57.679ZM52.96 56.625C53.424 56.625 53.8151 56.5339 54.1333 56.3516C54.4548 56.1693 54.6967 55.9339 54.8591 55.6456C55.0248 55.3572 55.1077 55.054 55.1077 54.7358V53.6619C55.058 53.7216 54.9486 53.7763 54.7796 53.826C54.6138 53.8724 54.4216 53.9138 54.2029 53.9503C53.9874 53.9834 53.777 54.0133 53.5715 54.0398C53.3693 54.063 53.2052 54.0829 53.0793 54.0994C52.7744 54.1392 52.4893 54.2038 52.2242 54.2933C51.9623 54.3795 51.7502 54.5104 51.5878 54.6861C51.4287 54.8584 51.3492 55.0937 51.3492 55.392C51.3492 55.7997 51.5 56.108 51.8016 56.3168C52.1065 56.5223 52.4926 56.625 52.96 56.625ZM52.0054 48.9489L51.0906 48.9091C51.0906 48.402 51.2348 47.9877 51.5232 47.6662C51.8148 47.3414 52.1744 47.179 52.602 47.179C52.7909 47.179 52.9583 47.2121 53.1041 47.2784C53.25 47.3414 53.3892 47.4143 53.5218 47.4972C53.6543 47.58 53.7902 47.6546 53.9294 47.7209C54.0719 47.7839 54.2327 47.8153 54.4117 47.8153C54.6006 47.8153 54.7597 47.7424 54.8889 47.5966C55.0215 47.4474 55.0878 47.2685 55.0878 47.0597L55.9827 47.1392C55.9827 47.6562 55.8369 48.0672 55.5452 48.3722C55.2568 48.6771 54.8989 48.8295 54.4713 48.8295C54.2426 48.8295 54.0537 48.7981 53.9046 48.7351C53.7554 48.6688 53.6228 48.5942 53.5068 48.5114C53.3908 48.4285 53.2682 48.3556 53.1389 48.2926C53.0097 48.2263 52.8506 48.1932 52.6617 48.1932C52.4727 48.1932 52.3153 48.2678 52.1894 48.4169C52.0667 48.5627 52.0054 48.7401 52.0054 48.9489ZM61.5248 57.6591C60.8354 57.6591 60.2305 57.495 59.7101 57.1669C59.1931 56.8388 58.7887 56.3797 58.4971 55.7898C58.2087 55.1998 58.0645 54.5104 58.0645 53.7216C58.0645 52.9261 58.2087 52.2318 58.4971 51.6385C58.7887 51.0452 59.1931 50.5845 59.7101 50.2564C60.2305 49.9283 60.8354 49.7642 61.5248 49.7642C62.2142 49.7642 62.8174 49.9283 63.3344 50.2564C63.8548 50.5845 64.2591 51.0452 64.5475 51.6385C64.8392 52.2318 64.985 52.9261 64.985 53.7216C64.985 54.5104 64.8392 55.1998 64.5475 55.7898C64.2591 56.3797 63.8548 56.8388 63.3344 57.1669C62.8174 57.495 62.2142 57.6591 61.5248 57.6591ZM61.5248 56.6051C62.0484 56.6051 62.4793 56.4709 62.8174 56.2024C63.1555 55.9339 63.4057 55.581 63.5681 55.1435C63.7305 54.706 63.8117 54.232 63.8117 53.7216C63.8117 53.2112 63.7305 52.7356 63.5681 52.2947C63.4057 51.8539 63.1555 51.4976 62.8174 51.2259C62.4793 50.9541 62.0484 50.8182 61.5248 50.8182C61.0011 50.8182 60.5702 50.9541 60.2322 51.2259C59.8941 51.4976 59.6439 51.8539 59.4814 52.2947C59.319 52.7356 59.2378 53.2112 59.2378 53.7216C59.2378 54.232 59.319 54.706 59.4814 55.1435C59.6439 55.581 59.8941 55.9339 60.2322 56.2024C60.5702 56.4709 61.0011 56.6051 61.5248 56.6051Z" fill="#231F20"/>
</svg>
