<svg width="40" height="62" viewBox="0 0 40 62" fill="none" xmlns="http://www.w3.org/2000/svg">
<path d="M4.15825 57.5V47.3182H5.3912V56.4062H10.1242V57.5H4.15825ZM15.0759 57.6591C14.3401 57.6591 13.7054 57.4967 13.1717 57.1719C12.6414 56.8438 12.2321 56.3864 11.9438 55.7997C11.6587 55.2098 11.5162 54.5237 11.5162 53.7415C11.5162 52.9593 11.6587 52.2699 11.9438 51.6733C12.2321 51.0734 12.6332 50.6061 13.1469 50.2713C13.6639 49.9332 14.2671 49.7642 14.9565 49.7642C15.3543 49.7642 15.747 49.8305 16.1348 49.9631C16.5226 50.0956 16.8756 50.3111 17.1938 50.6094C17.5119 50.9044 17.7655 51.2955 17.9544 51.7827C18.1433 52.2699 18.2378 52.8698 18.2378 53.5824V54.0795H12.3514V53.0653H17.0446C17.0446 52.6345 16.9584 52.25 16.7861 51.9119C16.6171 51.5739 16.3751 51.3071 16.0602 51.1115C15.7487 50.916 15.3808 50.8182 14.9565 50.8182C14.4892 50.8182 14.0849 50.9342 13.7435 51.1662C13.4054 51.3949 13.1452 51.6932 12.9629 52.0611C12.7806 52.429 12.6895 52.8234 12.6895 53.2443V53.9205C12.6895 54.4972 12.7889 54.986 12.9878 55.3871C13.19 55.7848 13.47 56.0881 13.828 56.2969C14.1859 56.5024 14.6019 56.6051 15.0759 56.6051C15.3841 56.6051 15.6625 56.562 15.9111 56.4759C16.163 56.3864 16.3801 56.2538 16.5624 56.0781C16.7447 55.8991 16.8855 55.6771 16.985 55.4119L18.1185 55.7301C17.9992 56.1146 17.7986 56.4527 17.5169 56.7443C17.2352 57.0327 16.8872 57.258 16.4729 57.4205C16.0586 57.5795 15.5929 57.6591 15.0759 57.6591ZM22.2698 57.679C21.7859 57.679 21.3467 57.5878 20.9523 57.4055C20.5579 57.2199 20.2447 56.9531 20.0127 56.6051C19.7806 56.2538 19.6646 55.8295 19.6646 55.3324C19.6646 54.8949 19.7508 54.5402 19.9232 54.2685C20.0955 53.9934 20.3259 53.7779 20.6142 53.6222C20.9026 53.4664 21.2207 53.3504 21.5688 53.2741C21.9201 53.1946 22.2731 53.1316 22.6277 53.0852C23.0917 53.0256 23.4679 52.9808 23.7563 52.951C24.0479 52.9179 24.26 52.8632 24.3926 52.7869C24.5285 52.7107 24.5965 52.5781 24.5965 52.3892V52.3494C24.5965 51.8589 24.4622 51.4777 24.1938 51.206C23.9286 50.9342 23.5259 50.7983 22.9857 50.7983C22.4255 50.7983 21.9864 50.9209 21.6682 51.1662C21.35 51.4115 21.1263 51.6733 20.997 51.9517L19.8834 51.554C20.0823 51.09 20.3474 50.7287 20.6788 50.4702C21.0136 50.2083 21.3782 50.026 21.7726 49.9233C22.1703 49.8172 22.5614 49.7642 22.9459 49.7642C23.1912 49.7642 23.4729 49.794 23.7911 49.8537C24.1126 49.91 24.4225 50.0277 24.7207 50.2067C25.0224 50.3857 25.2726 50.6558 25.4715 51.017C25.6703 51.3783 25.7698 51.8622 25.7698 52.4688V57.5H24.5965V56.4659H24.5368C24.4573 56.6316 24.3247 56.8089 24.1391 56.9979C23.9535 57.1868 23.7065 57.3475 23.3983 57.4801C23.0901 57.6127 22.7139 57.679 22.2698 57.679ZM22.4487 56.625C22.9127 56.625 23.3038 56.5339 23.622 56.3516C23.9435 56.1693 24.1855 55.9339 24.3479 55.6456C24.5136 55.3572 24.5965 55.054 24.5965 54.7358V53.6619C24.5467 53.7216 24.4374 53.7763 24.2683 53.826C24.1026 53.8724 23.9104 53.9138 23.6916 53.9503C23.4762 53.9834 23.2657 54.0133 23.0602 54.0398C22.8581 54.063 22.694 54.0829 22.568 54.0994C22.2631 54.1392 21.9781 54.2038 21.7129 54.2933C21.4511 54.3795 21.239 54.5104 21.0766 54.6861C20.9175 54.8584 20.8379 55.0937 20.8379 55.392C20.8379 55.7997 20.9887 56.108 21.2903 56.3168C21.5953 56.5223 21.9814 56.625 22.4487 56.625ZM21.4942 48.9489L20.5794 48.9091C20.5794 48.402 20.7236 47.9877 21.0119 47.6662C21.3036 47.3414 21.6632 47.179 22.0908 47.179C22.2797 47.179 22.4471 47.2121 22.5929 47.2784C22.7387 47.3414 22.8779 47.4143 23.0105 47.4972C23.1431 47.58 23.279 47.6546 23.4182 47.7209C23.5607 47.7839 23.7215 47.8153 23.9004 47.8153C24.0894 47.8153 24.2484 47.7424 24.3777 47.5966C24.5103 47.4474 24.5766 47.2685 24.5766 47.0597L25.4715 47.1392C25.4715 47.6562 25.3256 48.0672 25.034 48.3722C24.7456 48.6771 24.3877 48.8295 23.9601 48.8295C23.7314 48.8295 23.5425 48.7981 23.3933 48.7351C23.2442 48.6688 23.1116 48.5942 22.9956 48.5114C22.8796 48.4285 22.757 48.3556 22.6277 48.2926C22.4984 48.2263 22.3394 48.1932 22.1504 48.1932C21.9615 48.1932 21.8041 48.2678 21.6781 48.4169C21.5555 48.5627 21.4942 48.7401 21.4942 48.9489ZM31.0135 57.6591C30.3241 57.6591 29.7193 57.495 29.1989 57.1669C28.6819 56.8388 28.2775 56.3797 27.9858 55.7898C27.6975 55.1998 27.5533 54.5104 27.5533 53.7216C27.5533 52.9261 27.6975 52.2318 27.9858 51.6385C28.2775 51.0452 28.6819 50.5845 29.1989 50.2564C29.7193 49.9283 30.3241 49.7642 31.0135 49.7642C31.7029 49.7642 32.3062 49.9283 32.8232 50.2564C33.3436 50.5845 33.7479 51.0452 34.0363 51.6385C34.3279 52.2318 34.4738 52.9261 34.4738 53.7216C34.4738 54.5104 34.3279 55.1998 34.0363 55.7898C33.7479 56.3797 33.3436 56.8388 32.8232 57.1669C32.3062 57.495 31.7029 57.6591 31.0135 57.6591ZM31.0135 56.6051C31.5372 56.6051 31.9681 56.4709 32.3062 56.2024C32.6442 55.9339 32.8945 55.581 33.0569 55.1435C33.2193 54.706 33.3005 54.232 33.3005 53.7216C33.3005 53.2112 33.2193 52.7356 33.0569 52.2947C32.8945 51.8539 32.6442 51.4976 32.3062 51.2259C31.9681 50.9541 31.5372 50.8182 31.0135 50.8182C30.4899 50.8182 30.059 50.9541 29.7209 51.2259C29.3829 51.4976 29.1326 51.8539 28.9702 52.2947C28.8078 52.7356 28.7266 53.2112 28.7266 53.7216C28.7266 54.232 28.8078 54.706 28.9702 55.1435C29.1326 55.581 29.3829 55.9339 29.7209 56.2024C30.059 56.4709 30.4899 56.6051 31.0135 56.6051Z" fill="#231F20"/>
<g filter="url(#filter0_d_1_2618)">
<path d="M33.173 30.9558C33.173 33.9677 30.9328 36.4094 28.1694 36.4094C25.4675 36.2639 23.2993 33.9007 23.1658 30.9558C23.4327 28.0291 23.9998 25.1387 24.8337 22.3392C25.7343 19.2306 26.2847 16.0312 26.5015 12.7773C26.3848 7.81452 22.7155 3.81524 18.1623 3.68799C13.609 3.81524 9.93976 7.81452 9.823 12.7773C10.0732 15.5586 10.6569 18.2854 11.4909 20.9576L11.8411 22.2301C8.32193 21.0121 4.58594 23.139 3.46848 26.9565C2.31766 30.7922 4.28573 34.8824 7.8049 36.1003C11.3241 37.3183 15.0601 35.1914 16.1775 31.3557C16.3943 30.6468 16.4944 29.8833 16.4944 29.1379C16.2276 25.9931 15.6605 22.8845 14.6765 19.9032C13.9426 17.5946 13.4256 15.2132 13.1587 12.7773C13.2921 9.83233 15.4604 7.46912 18.1623 7.3237C20.8642 7.46912 23.0324 9.83233 23.1658 12.7773C22.899 15.704 22.3319 18.5944 21.498 21.3939C20.5973 24.5024 20.0469 27.7018 19.8301 30.9558C19.9469 35.9185 23.6162 39.9178 28.1694 40.0451C32.775 40.0451 36.5087 35.9757 36.5087 30.9558H33.173ZM9.823 32.7736C7.98074 32.7736 6.4873 31.1459 6.4873 29.1379C6.4873 27.13 7.98074 25.5022 9.823 25.5022C11.6653 25.5022 13.1587 27.13 13.1587 29.1379C13.1587 31.1459 11.6653 32.7736 9.823 32.7736Z" fill="#FF0A6B"/>
</g>
<defs>
<filter id="filter0_d_1_2618" x="0.139404" y="3.68799" width="39.3691" height="44.3572" filterUnits="userSpaceOnUse" color-interpolation-filters="sRGB">
<feFlood flood-opacity="0" result="BackgroundImageFix"/>
<feColorMatrix in="SourceAlpha" type="matrix" values="0 0 0 0 0 0 0 0 0 0 0 0 0 0 0 0 0 0 127 0" result="hardAlpha"/>
<feOffset dy="5"/>
<feGaussianBlur stdDeviation="1.5"/>
<feComposite in2="hardAlpha" operator="out"/>
<feColorMatrix type="matrix" values="0 0 0 0 0 0 0 0 0 0 0 0 0 0 0 0 0 0 0.0509804 0"/>
<feBlend mode="normal" in2="BackgroundImageFix" result="effect1_dropShadow_1_2618"/>
<feBlend mode="normal" in="SourceGraphic" in2="effect1_dropShadow_1_2618" result="shape"/>
</filter>
</defs>
</svg>
