<svg width="40" height="62" viewBox="0 0 40 62" fill="none" xmlns="http://www.w3.org/2000/svg">
<path d="M1.58751 48.4119V47.3182H9.22388V48.4119H6.02217V57.5H4.78922V48.4119H1.58751ZM12.9625 57.6591C12.2731 57.6591 11.6682 57.495 11.1479 57.1669C10.6308 56.8388 10.2265 56.3797 9.93481 55.7898C9.64646 55.1998 9.50229 54.5104 9.50229 53.7216C9.50229 52.9261 9.64646 52.2318 9.93481 51.6385C10.2265 51.0452 10.6308 50.5845 11.1479 50.2564C11.6682 49.9283 12.2731 49.7642 12.9625 49.7642C13.6519 49.7642 14.2551 49.9283 14.7722 50.2564C15.2925 50.5845 15.6969 51.0452 15.9852 51.6385C16.2769 52.2318 16.4227 52.9261 16.4227 53.7216C16.4227 54.5104 16.2769 55.1998 15.9852 55.7898C15.6969 56.3797 15.2925 56.8388 14.7722 57.1669C14.2551 57.495 13.6519 57.6591 12.9625 57.6591ZM12.9625 56.6051C13.4862 56.6051 13.9171 56.4709 14.2551 56.2024C14.5932 55.9339 14.8434 55.581 15.0058 55.1435C15.1682 54.706 15.2494 54.232 15.2494 53.7216C15.2494 53.2112 15.1682 52.7356 15.0058 52.2947C14.8434 51.8539 14.5932 51.4976 14.2551 51.2259C13.9171 50.9541 13.4862 50.8182 12.9625 50.8182C12.4388 50.8182 12.008 50.9541 11.6699 51.2259C11.3318 51.4976 11.0816 51.8539 10.9192 52.2947C10.7568 52.7356 10.6756 53.2112 10.6756 53.7216C10.6756 54.232 10.7568 54.706 10.9192 55.1435C11.0816 55.581 11.3318 55.9339 11.6699 56.2024C12.008 56.4709 12.4388 56.6051 12.9625 56.6051ZM23.0263 54.3778V49.8636H24.1996V57.5H23.0263V56.2074H22.9467C22.7677 56.5952 22.4893 56.925 22.1115 57.1967C21.7336 57.4652 21.2564 57.5994 20.6797 57.5994C20.2024 57.5994 19.7782 57.495 19.4069 57.2862C19.0357 57.0741 18.7441 56.7559 18.5319 56.3317C18.3198 55.9041 18.2138 55.3655 18.2138 54.7159V49.8636H19.3871V54.6364C19.3871 55.1932 19.5428 55.6373 19.8544 55.9688C20.1692 56.3002 20.5703 56.4659 21.0575 56.4659C21.3492 56.4659 21.6458 56.3913 21.9474 56.2422C22.2523 56.093 22.5076 55.8643 22.713 55.5561C22.9219 55.2479 23.0263 54.8551 23.0263 54.3778ZM26.3485 57.5V49.8636H27.482V51.017H27.5616C27.7008 50.6392 27.9527 50.3326 28.3173 50.0973C28.6819 49.862 29.0928 49.7443 29.5502 49.7443C29.6364 49.7443 29.7441 49.746 29.8734 49.7493C30.0026 49.7526 30.1004 49.7576 30.1667 49.7642V50.9574C30.1269 50.9474 30.0358 50.9325 29.8933 50.9126C29.7541 50.8894 29.6066 50.8778 29.4508 50.8778C29.0796 50.8778 28.7481 50.9557 28.4565 51.1115C28.1681 51.264 27.9394 51.4761 27.7704 51.7479C27.6047 52.0163 27.5218 52.3229 27.5218 52.6676V57.5H26.3485ZM34.4274 57.6591C33.738 57.6591 33.1331 57.495 32.6127 57.1669C32.0957 56.8388 31.6913 56.3797 31.3997 55.7898C31.1113 55.1998 30.9671 54.5104 30.9671 53.7216C30.9671 52.9261 31.1113 52.2318 31.3997 51.6385C31.6913 51.0452 32.0957 50.5845 32.6127 50.2564C33.1331 49.9283 33.738 49.7642 34.4274 49.7642C35.1168 49.7642 35.72 49.9283 36.237 50.2564C36.7574 50.5845 37.1617 51.0452 37.4501 51.6385C37.7418 52.2318 37.8876 52.9261 37.8876 53.7216C37.8876 54.5104 37.7418 55.1998 37.4501 55.7898C37.1617 56.3797 36.7574 56.8388 36.237 57.1669C35.72 57.495 35.1168 57.6591 34.4274 57.6591ZM34.4274 56.6051C34.951 56.6051 35.3819 56.4709 35.72 56.2024C36.058 55.9339 36.3083 55.581 36.4707 55.1435C36.6331 54.706 36.7143 54.232 36.7143 53.7216C36.7143 53.2112 36.6331 52.7356 36.4707 52.2947C36.3083 51.8539 36.058 51.4976 35.72 51.2259C35.3819 50.9541 34.951 50.8182 34.4274 50.8182C33.9037 50.8182 33.4728 50.9541 33.1347 51.2259C32.7967 51.4976 32.5464 51.8539 32.384 52.2947C32.2216 52.7356 32.1404 53.2112 32.1404 53.7216C32.1404 54.232 32.2216 54.706 32.384 55.1435C32.5464 55.581 32.7967 55.9339 33.1347 56.2024C33.4728 56.4709 33.9037 56.6051 34.4274 56.6051Z" fill="#231F20"/>
<g filter="url(#filter0_d_1_2613)">
<path d="M26.5644 15.0409C30.0836 12.7405 32.2518 8.57791 32.2518 4.08667H28.9161C28.9161 9.12822 25.1825 13.2152 20.5768 13.2152C15.9712 13.2152 12.2376 9.12822 12.2376 4.08667L8.90185 4.08667C8.90185 8.57791 11.0701 12.7405 14.5892 15.0409C9.05195 18.6923 7.23399 26.5064 10.5697 32.5677C13.8554 38.6291 21.0271 40.6008 26.5644 36.9494C32.1017 33.371 33.9197 25.5205 30.5839 19.4591C29.6166 17.6517 28.2156 16.1181 26.5644 15.0409ZM20.5768 35.1237C15.9712 35.1237 12.2376 31.0367 12.2376 25.9952C12.2376 20.9536 15.9712 16.8666 20.5768 16.8666C25.1825 16.8666 28.9161 20.9536 28.9161 25.9952C28.9161 31.0367 25.1825 35.1237 20.5768 35.1237Z" fill="#FF0A6B"/>
</g>
<defs>
<filter id="filter0_d_1_2613" x="5.89819" y="4.08667" width="29.3572" height="42.6973" filterUnits="userSpaceOnUse" color-interpolation-filters="sRGB">
<feFlood flood-opacity="0" result="BackgroundImageFix"/>
<feColorMatrix in="SourceAlpha" type="matrix" values="0 0 0 0 0 0 0 0 0 0 0 0 0 0 0 0 0 0 127 0" result="hardAlpha"/>
<feOffset dy="5"/>
<feGaussianBlur stdDeviation="1.5"/>
<feComposite in2="hardAlpha" operator="out"/>
<feColorMatrix type="matrix" values="0 0 0 0 0 0 0 0 0 0 0 0 0 0 0 0 0 0 0.0509804 0"/>
<feBlend mode="normal" in2="BackgroundImageFix" result="effect1_dropShadow_1_2613"/>
<feBlend mode="normal" in="SourceGraphic" in2="effect1_dropShadow_1_2613" result="shape"/>
</filter>
</defs>
</svg>
