<svg width="60" height="62" viewBox="0 0 60 62" fill="none" xmlns="http://www.w3.org/2000/svg">
<path d="M50.7707 3.83325V22.022H46.6256V10.0356L26.7498 27.4786L31.5166 31.6438L28.5736 34.2266L23.8275 30.0432L12.8637 39.6833L9.92065 37.1005L20.9052 27.4786L16.1383 23.3134L19.0813 20.7306L23.8275 24.914L43.7033 7.471H30.0451V3.83325H50.7707Z" fill="#FF0A6B"/>
<path d="M7.33239 49.8636C7.27273 49.3598 7.03078 48.9688 6.60653 48.6903C6.18229 48.4119 5.66193 48.2727 5.04545 48.2727C4.5947 48.2727 4.20028 48.3456 3.86222 48.4915C3.52746 48.6373 3.26563 48.8378 3.0767 49.093C2.8911 49.3482 2.7983 49.6383 2.7983 49.9631C2.7983 50.2348 2.86293 50.4685 2.99219 50.6641C3.12476 50.8563 3.2938 51.017 3.49929 51.1463C3.70478 51.2723 3.92022 51.3767 4.1456 51.4595C4.37098 51.5391 4.57812 51.6037 4.76705 51.6534L5.80114 51.9318C6.06629 52.0014 6.36127 52.0975 6.68608 52.2202C7.0142 52.3428 7.32741 52.5102 7.62571 52.7223C7.92732 52.9311 8.1759 53.1996 8.37145 53.5277C8.567 53.8558 8.66477 54.2585 8.66477 54.7358C8.66477 55.286 8.5206 55.7831 8.23224 56.2273C7.94721 56.6714 7.52959 57.0244 6.9794 57.2862C6.43253 57.5481 5.76799 57.679 4.9858 57.679C4.25663 57.679 3.62524 57.5613 3.09162 57.326C2.56132 57.0907 2.1437 56.7625 1.83878 56.3416C1.53717 55.9207 1.36648 55.4318 1.3267 54.875H2.59943C2.63258 55.2595 2.76184 55.5777 2.98722 55.8295C3.21591 56.0781 3.50426 56.2637 3.85227 56.3864C4.2036 56.5057 4.58144 56.5653 4.9858 56.5653C5.45644 56.5653 5.87902 56.4891 6.25355 56.3366C6.62808 56.1809 6.92472 55.9654 7.14347 55.6903C7.36222 55.4119 7.47159 55.0871 7.47159 54.7159C7.47159 54.3778 7.37713 54.1027 7.18821 53.8906C6.99929 53.6785 6.75071 53.5062 6.44247 53.3736C6.13423 53.241 5.80114 53.125 5.44318 53.0256L4.19034 52.6676C3.39489 52.4389 2.76515 52.1125 2.30114 51.6882C1.83712 51.264 1.60511 50.7088 1.60511 50.0227C1.60511 49.4527 1.75923 48.9555 2.06747 48.5312C2.37902 48.1037 2.79664 47.7723 3.32031 47.5369C3.8473 47.2983 4.43561 47.179 5.08523 47.179C5.74148 47.179 6.32481 47.2966 6.83523 47.532C7.34564 47.764 7.75 48.0821 8.0483 48.4865C8.34991 48.8909 8.509 49.3499 8.52557 49.8636H7.33239ZM12.78 57.679C12.2961 57.679 11.8569 57.5878 11.4625 57.4055C11.0681 57.2199 10.7549 56.9531 10.5229 56.6051C10.2909 56.2538 10.1749 55.8295 10.1749 55.3324C10.1749 54.8949 10.2611 54.5402 10.4334 54.2685C10.6058 53.9934 10.8361 53.7779 11.1245 53.6222C11.4128 53.4664 11.731 53.3504 12.079 53.2741C12.4303 53.1946 12.7833 53.1316 13.138 53.0852C13.602 53.0256 13.9782 52.9808 14.2665 52.951C14.5582 52.9179 14.7703 52.8632 14.9029 52.7869C15.0388 52.7107 15.1067 52.5781 15.1067 52.3892V52.3494C15.1067 51.8589 14.9725 51.4777 14.704 51.206C14.4389 50.9342 14.0362 50.7983 13.4959 50.7983C12.9358 50.7983 12.4966 50.9209 12.1784 51.1662C11.8603 51.4115 11.6365 51.6733 11.5073 51.9517L10.3936 51.554C10.5925 51.09 10.8577 50.7287 11.1891 50.4702C11.5239 50.2083 11.8884 50.026 12.2828 49.9233C12.6806 49.8172 13.0717 49.7642 13.4561 49.7642C13.7014 49.7642 13.9831 49.794 14.3013 49.8537C14.6228 49.91 14.9327 50.0277 15.231 50.2067C15.5326 50.3857 15.7828 50.6558 15.9817 51.017C16.1806 51.3783 16.28 51.8622 16.28 52.4688V57.5H15.1067V56.4659H15.0471C14.9675 56.6316 14.8349 56.8089 14.6493 56.9979C14.4637 57.1868 14.2168 57.3475 13.9086 57.4801C13.6003 57.6127 13.2241 57.679 12.78 57.679ZM12.959 56.625C13.423 56.625 13.8141 56.5339 14.1323 56.3516C14.4538 56.1693 14.6957 55.9339 14.8581 55.6456C15.0239 55.3572 15.1067 55.054 15.1067 54.7358V53.6619C15.057 53.7216 14.9476 53.7763 14.7786 53.826C14.6129 53.8724 14.4206 53.9138 14.2019 53.9503C13.9864 53.9834 13.776 54.0133 13.5705 54.0398C13.3683 54.063 13.2042 54.0829 13.0783 54.0994C12.7734 54.1392 12.4883 54.2038 12.2232 54.2933C11.9614 54.3795 11.7492 54.5104 11.5868 54.6861C11.4277 54.8584 11.3482 55.0937 11.3482 55.392C11.3482 55.7997 11.499 56.108 11.8006 56.3168C12.1055 56.5223 12.4917 56.625 12.959 56.625ZM21.5039 60.5227C20.9371 60.5227 20.4499 60.4498 20.0423 60.304C19.6346 60.1615 19.2949 59.9725 19.0231 59.7372C18.7546 59.5052 18.5408 59.2566 18.3817 58.9915L19.3164 58.3352C19.4225 58.4744 19.5567 58.6335 19.7191 58.8125C19.8815 58.9948 20.1036 59.1522 20.3853 59.2848C20.6703 59.4207 21.0432 59.4886 21.5039 59.4886C22.1204 59.4886 22.6291 59.3395 23.0302 59.0412C23.4312 58.7429 23.6317 58.2756 23.6317 57.6392V56.0881H23.5323C23.4461 56.2273 23.3235 56.3996 23.1644 56.6051C23.0086 56.8073 22.7833 56.9879 22.4883 57.147C22.1966 57.3028 21.8022 57.3807 21.305 57.3807C20.6886 57.3807 20.1351 57.2348 19.6445 56.9432C19.1573 56.6515 18.7712 56.2273 18.4862 55.6705C18.2044 55.1136 18.0636 54.4375 18.0636 53.642C18.0636 52.8598 18.2011 52.1787 18.4762 51.5987C18.7513 51.0154 19.1341 50.5646 19.6246 50.2464C20.1152 49.925 20.6819 49.7642 21.3249 49.7642C21.8221 49.7642 22.2165 49.8471 22.5082 50.0128C22.8031 50.1752 23.0285 50.3608 23.1843 50.5696C23.3434 50.7751 23.466 50.9441 23.5522 51.0767H23.6715V49.8636H24.805V57.7188C24.805 58.375 24.6559 58.9086 24.3576 59.3196C24.0626 59.7339 23.6649 60.0372 23.1644 60.2294C22.6673 60.425 22.1138 60.5227 21.5039 60.5227ZM21.4641 56.3267C21.9348 56.3267 22.3325 56.219 22.6573 56.0036C22.9821 55.7881 23.229 55.4782 23.3981 55.0739C23.5671 54.6695 23.6516 54.1856 23.6516 53.6222C23.6516 53.072 23.5688 52.5864 23.4031 52.1655C23.2373 51.7446 22.9921 51.4148 22.6673 51.1761C22.3424 50.9375 21.9414 50.8182 21.4641 50.8182C20.967 50.8182 20.5527 50.9441 20.2212 51.196C19.8931 51.4479 19.6462 51.786 19.4805 52.2102C19.3181 52.6345 19.2369 53.1051 19.2369 53.6222C19.2369 54.1525 19.3197 54.6214 19.4854 55.0291C19.6545 55.4335 19.9031 55.7517 20.2312 55.9837C20.5626 56.2124 20.9736 56.3267 21.4641 56.3267ZM26.9528 57.5V49.8636H28.1261V57.5H26.9528ZM27.5494 48.5909C27.3207 48.5909 27.1235 48.513 26.9577 48.3572C26.7953 48.2015 26.7141 48.0142 26.7141 47.7955C26.7141 47.5767 26.7953 47.3894 26.9577 47.2337C27.1235 47.0779 27.3207 47 27.5494 47C27.7781 47 27.9736 47.0779 28.136 47.2337C28.3017 47.3894 28.3846 47.5767 28.3846 47.7955C28.3846 48.0142 28.3017 48.2015 28.136 48.3572C27.9736 48.513 27.7781 48.5909 27.5494 48.5909ZM33.5961 49.8636V50.858H29.6387V49.8636H33.5961ZM30.7921 48.0341H31.9654V55.3125C31.9654 55.6439 32.0134 55.8925 32.1096 56.0582C32.209 56.2206 32.3349 56.33 32.4874 56.3864C32.6432 56.4394 32.8072 56.4659 32.9796 56.4659C33.1088 56.4659 33.2149 56.4593 33.2978 56.446C33.3806 56.4295 33.4469 56.4162 33.4966 56.4062L33.7353 57.4602C33.6557 57.4901 33.5447 57.5199 33.4022 57.5497C33.2596 57.5829 33.079 57.5994 32.8603 57.5994C32.5288 57.5994 32.204 57.5282 31.8858 57.3857C31.571 57.2431 31.3091 57.026 31.1003 56.7344C30.8948 56.4427 30.7921 56.0748 30.7921 55.6307V48.0341ZM37.6081 57.679C37.1242 57.679 36.6851 57.5878 36.2907 57.4055C35.8962 57.2199 35.583 56.9531 35.351 56.6051C35.119 56.2538 35.003 55.8295 35.003 55.3324C35.003 54.8949 35.0892 54.5402 35.2615 54.2685C35.4339 53.9934 35.6642 53.7779 35.9526 53.6222C36.2409 53.4664 36.5591 53.3504 36.9071 53.2741C37.2585 53.1946 37.6114 53.1316 37.9661 53.0852C38.4301 53.0256 38.8063 52.9808 39.0946 52.951C39.3863 52.9179 39.5984 52.8632 39.731 52.7869C39.8669 52.7107 39.9348 52.5781 39.9348 52.3892V52.3494C39.9348 51.8589 39.8006 51.4777 39.5321 51.206C39.267 50.9342 38.8643 50.7983 38.324 50.7983C37.7639 50.7983 37.3248 50.9209 37.0066 51.1662C36.6884 51.4115 36.4647 51.6733 36.3354 51.9517L35.2218 51.554C35.4206 51.09 35.6858 50.7287 36.0172 50.4702C36.352 50.2083 36.7166 50.026 37.111 49.9233C37.5087 49.8172 37.8998 49.7642 38.2843 49.7642C38.5295 49.7642 38.8113 49.794 39.1294 49.8537C39.4509 49.91 39.7608 50.0277 40.0591 50.2067C40.3607 50.3857 40.611 50.6558 40.8098 51.017C41.0087 51.3783 41.1081 51.8622 41.1081 52.4688V57.5H39.9348V56.4659H39.8752C39.7956 56.6316 39.6631 56.8089 39.4775 56.9979C39.2918 57.1868 39.0449 57.3475 38.7367 57.4801C38.4284 57.6127 38.0523 57.679 37.6081 57.679ZM37.7871 56.625C38.2511 56.625 38.6422 56.5339 38.9604 56.3516C39.2819 56.1693 39.5239 55.9339 39.6863 55.6456C39.852 55.3572 39.9348 55.054 39.9348 54.7358V53.6619C39.8851 53.7216 39.7757 53.7763 39.6067 53.826C39.441 53.8724 39.2488 53.9138 39.03 53.9503C38.8146 53.9834 38.6041 54.0133 38.3986 54.0398C38.1964 54.063 38.0324 54.0829 37.9064 54.0994C37.6015 54.1392 37.3165 54.2038 37.0513 54.2933C36.7895 54.3795 36.5774 54.5104 36.415 54.6861C36.2559 54.8584 36.1763 55.0937 36.1763 55.392C36.1763 55.7997 36.3271 56.108 36.6287 56.3168C36.9337 56.5223 37.3198 56.625 37.7871 56.625ZM37.8269 48.8295L39.04 46.5227H40.4121L38.861 48.8295H37.8269ZM43.2496 57.5V49.8636H44.3832V51.017H44.4627C44.6019 50.6392 44.8538 50.3326 45.2184 50.0973C45.583 49.862 45.994 49.7443 46.4513 49.7443C46.5375 49.7443 46.6452 49.746 46.7745 49.7493C46.9038 49.7526 47.0015 49.7576 47.0678 49.7642V50.9574C47.0281 50.9474 46.9369 50.9325 46.7944 50.9126C46.6552 50.8894 46.5077 50.8778 46.3519 50.8778C45.9807 50.8778 45.6493 50.9557 45.3576 51.1115C45.0692 51.264 44.8406 51.4761 44.6715 51.7479C44.5058 52.0163 44.4229 52.3229 44.4229 52.6676V57.5H43.2496ZM48.4586 57.5V49.8636H49.6319V57.5H48.4586ZM49.0552 48.5909C48.8265 48.5909 48.6293 48.513 48.4636 48.3572C48.3012 48.2015 48.22 48.0142 48.22 47.7955C48.22 47.5767 48.3012 47.3894 48.4636 47.2337C48.6293 47.0779 48.8265 47 49.0552 47C49.2839 47 49.4795 47.0779 49.6419 47.2337C49.8076 47.3894 49.8904 47.5767 49.8904 47.7955C49.8904 48.0142 49.8076 48.2015 49.6419 48.3572C49.4795 48.513 49.2839 48.5909 49.0552 48.5909ZM54.8832 57.6591C54.1938 57.6591 53.5889 57.495 53.0685 57.1669C52.5515 56.8388 52.1471 56.3797 51.8555 55.7898C51.5671 55.1998 51.4229 54.5104 51.4229 53.7216C51.4229 52.9261 51.5671 52.2318 51.8555 51.6385C52.1471 51.0452 52.5515 50.5845 53.0685 50.2564C53.5889 49.9283 54.1938 49.7642 54.8832 49.7642C55.5726 49.7642 56.1758 49.9283 56.6928 50.2564C57.2132 50.5845 57.6175 51.0452 57.9059 51.6385C58.1976 52.2318 58.3434 52.9261 58.3434 53.7216C58.3434 54.5104 58.1976 55.1998 57.9059 55.7898C57.6175 56.3797 57.2132 56.8388 56.6928 57.1669C56.1758 57.495 55.5726 57.6591 54.8832 57.6591ZM54.8832 56.6051C55.4068 56.6051 55.8377 56.4709 56.1758 56.2024C56.5138 55.9339 56.7641 55.581 56.9265 55.1435C57.0889 54.706 57.1701 54.232 57.1701 53.7216C57.1701 53.2112 57.0889 52.7356 56.9265 52.2947C56.7641 51.8539 56.5138 51.4976 56.1758 51.2259C55.8377 50.9541 55.4068 50.8182 54.8832 50.8182C54.3595 50.8182 53.9286 50.9541 53.5906 51.2259C53.2525 51.4976 53.0022 51.8539 52.8398 52.2947C52.6774 52.7356 52.5962 53.2112 52.5962 53.7216C52.5962 54.232 52.6774 54.706 52.8398 55.1435C53.0022 55.581 53.2525 55.9339 53.5906 56.2024C53.9286 56.4709 54.3595 56.6051 54.8832 56.6051Z" fill="#231F20"/>
</svg>
