<svg width="50" height="62" viewBox="0 0 50 62" fill="none" xmlns="http://www.w3.org/2000/svg">
<path d="M9.54943 50.5H8.31647C8.24356 50.1454 8.11595 49.8338 7.93366 49.5653C7.75468 49.2969 7.53593 49.0715 7.27741 48.8892C7.0222 48.7036 6.73882 48.5644 6.42727 48.4716C6.11572 48.3788 5.79091 48.3324 5.45284 48.3324C4.83636 48.3324 4.27788 48.4882 3.77741 48.7997C3.28025 49.1113 2.88418 49.5703 2.5892 50.1768C2.29753 50.7834 2.1517 51.5275 2.1517 52.4091C2.1517 53.2907 2.29753 54.0348 2.5892 54.6413C2.88418 55.2479 3.28025 55.7069 3.77741 56.0185C4.27788 56.33 4.83636 56.4858 5.45284 56.4858C5.79091 56.4858 6.11572 56.4394 6.42727 56.3466C6.73882 56.2538 7.0222 56.1162 7.27741 55.9339C7.53593 55.7483 7.75468 55.5213 7.93366 55.2528C8.11595 54.9811 8.24356 54.6695 8.31647 54.3182H9.54943C9.45662 54.8385 9.28759 55.3042 9.04233 55.7152C8.79706 56.1262 8.49214 56.4759 8.12755 56.7642C7.76297 57.0492 7.35364 57.2663 6.89957 57.4155C6.44881 57.5646 5.96657 57.6392 5.45284 57.6392C4.58447 57.6392 3.81221 57.4271 3.13608 57.0028C2.45994 56.5786 1.92798 55.9754 1.54019 55.1932C1.15241 54.411 0.958518 53.483 0.958518 52.4091C0.958518 51.3352 1.15241 50.4072 1.54019 49.625C1.92798 48.8428 2.45994 48.2396 3.13608 47.8153C3.81221 47.3911 4.58447 47.179 5.45284 47.179C5.96657 47.179 6.44881 47.2536 6.89957 47.4027C7.35364 47.5518 7.76297 47.7706 8.12755 48.0589C8.49214 48.344 8.79706 48.692 9.04233 49.103C9.28759 49.5107 9.45662 49.9763 9.54943 50.5ZM13.6299 57.679C13.146 57.679 12.7068 57.5878 12.3124 57.4055C11.918 57.2199 11.6048 56.9531 11.3728 56.6051C11.1408 56.2538 11.0247 55.8295 11.0247 55.3324C11.0247 54.8949 11.1109 54.5402 11.2833 54.2685C11.4556 53.9934 11.686 53.7779 11.9743 53.6222C12.2627 53.4664 12.5809 53.3504 12.9289 53.2741C13.2802 53.1946 13.6332 53.1316 13.9878 53.0852C14.4518 53.0256 14.828 52.9808 15.1164 52.951C15.408 52.9179 15.6202 52.8632 15.7527 52.7869C15.8886 52.7107 15.9566 52.5781 15.9566 52.3892V52.3494C15.9566 51.8589 15.8223 51.4777 15.5539 51.206C15.2887 50.9342 14.886 50.7983 14.3458 50.7983C13.7856 50.7983 13.3465 50.9209 13.0283 51.1662C12.7101 51.4115 12.4864 51.6733 12.3571 51.9517L11.2435 51.554C11.4424 51.09 11.7075 50.7287 12.039 50.4702C12.3737 50.2083 12.7383 50.026 13.1327 49.9233C13.5304 49.8172 13.9215 49.7642 14.306 49.7642C14.5513 49.7642 14.833 49.794 15.1512 49.8537C15.4727 49.91 15.7826 50.0277 16.0809 50.2067C16.3825 50.3857 16.6327 50.6558 16.8316 51.017C17.0304 51.3783 17.1299 51.8622 17.1299 52.4688V57.5H15.9566V56.4659H15.8969C15.8174 56.6316 15.6848 56.8089 15.4992 56.9979C15.3136 57.1868 15.0667 57.3475 14.7584 57.4801C14.4502 57.6127 14.074 57.679 13.6299 57.679ZM13.8088 56.625C14.2729 56.625 14.664 56.5339 14.9821 56.3516C15.3036 56.1693 15.5456 55.9339 15.708 55.6456C15.8737 55.3572 15.9566 55.054 15.9566 54.7358V53.6619C15.9068 53.7216 15.7975 53.7763 15.6284 53.826C15.4627 53.8724 15.2705 53.9138 15.0517 53.9503C14.8363 53.9834 14.6258 54.0133 14.4203 54.0398C14.2182 54.063 14.0541 54.0829 13.9282 54.0994C13.6232 54.1392 13.3382 54.2038 13.073 54.2933C12.8112 54.3795 12.5991 54.5104 12.4367 54.6861C12.2776 54.8584 12.198 55.0937 12.198 55.392C12.198 55.7997 12.3488 56.108 12.6505 56.3168C12.9554 56.5223 13.3415 56.625 13.8088 56.625ZM15.4196 48.9489L14.3855 47.5568L13.3515 48.9489H12.2378V48.8693L13.8486 46.8011H14.9225L16.5333 48.8693V48.9489H15.4196ZM20.4447 52.9062V57.5H19.2714V49.8636H20.4049V51.0568H20.5043C20.6833 50.669 20.9551 50.3575 21.3197 50.1222C21.6843 49.8835 22.1549 49.7642 22.7316 49.7642C23.2486 49.7642 23.7011 49.8703 24.0888 50.0824C24.4766 50.2912 24.7782 50.6094 24.9937 51.0369C25.2091 51.4612 25.3168 51.9981 25.3168 52.6477V57.5H24.1435V52.7273C24.1435 52.1274 23.9878 51.66 23.6762 51.3253C23.3647 50.9872 22.9371 50.8182 22.3935 50.8182C22.019 50.8182 21.6843 50.8994 21.3893 51.0618C21.0976 51.2242 20.8673 51.4612 20.6982 51.7727C20.5292 52.0843 20.4447 52.4621 20.4447 52.9062ZM30.5631 57.6591C29.8472 57.6591 29.2307 57.4901 28.7137 57.152C28.1966 56.8139 27.7989 56.3482 27.5205 55.755C27.2421 55.1617 27.1029 54.4839 27.1029 53.7216C27.1029 52.946 27.2454 52.2616 27.5304 51.6683C27.8188 51.0717 28.2198 50.6061 28.7336 50.2713C29.2506 49.9332 29.8538 49.7642 30.5432 49.7642C31.0801 49.7642 31.564 49.8636 31.9949 50.0625C32.4258 50.2614 32.7788 50.5398 33.0539 50.8977C33.329 51.2557 33.4997 51.6733 33.5659 52.1506H32.3926C32.3032 51.8026 32.1043 51.4943 31.7961 51.2259C31.4911 50.9541 31.0801 50.8182 30.5631 50.8182C30.1057 50.8182 29.7047 50.9375 29.36 51.1761C29.0186 51.4115 28.7518 51.7446 28.5595 52.1754C28.3706 52.603 28.2762 53.1051 28.2762 53.6818C28.2762 54.2718 28.369 54.7855 28.5546 55.223C28.7435 55.6605 29.0086 56.0002 29.35 56.2422C29.6947 56.4841 30.0991 56.6051 30.5631 56.6051C30.868 56.6051 31.1448 56.5521 31.3934 56.446C31.6419 56.34 31.8524 56.1875 32.0247 55.9886C32.1971 55.7898 32.3197 55.5511 32.3926 55.2727H33.5659C33.4997 55.7235 33.3356 56.1295 33.0738 56.4908C32.8152 56.8487 32.4722 57.1338 32.0446 57.3459C31.6204 57.5547 31.1265 57.6591 30.5631 57.6591ZM38.4828 57.6591C37.747 57.6591 37.1123 57.4967 36.5787 57.1719C36.0484 56.8438 35.6391 56.3864 35.3507 55.7997C35.0657 55.2098 34.9232 54.5237 34.9232 53.7415C34.9232 52.9593 35.0657 52.2699 35.3507 51.6733C35.6391 51.0734 36.0401 50.6061 36.5539 50.2713C37.0709 49.9332 37.6741 49.7642 38.3635 49.7642C38.7613 49.7642 39.154 49.8305 39.5418 49.9631C39.9296 50.0956 40.2826 50.3111 40.6007 50.6094C40.9189 50.9044 41.1725 51.2955 41.3614 51.7827C41.5503 52.2699 41.6448 52.8698 41.6448 53.5824V54.0795H35.7584V53.0653H40.4516C40.4516 52.6345 40.3654 52.25 40.1931 51.9119C40.024 51.5739 39.7821 51.3071 39.4672 51.1115C39.1557 50.916 38.7878 50.8182 38.3635 50.8182C37.8962 50.8182 37.4918 50.9342 37.1505 51.1662C36.8124 51.3949 36.5522 51.6932 36.3699 52.0611C36.1876 52.429 36.0965 52.8234 36.0965 53.2443V53.9205C36.0965 54.4972 36.1959 54.986 36.3948 55.3871C36.597 55.7848 36.877 56.0881 37.235 56.2969C37.5929 56.5024 38.0089 56.6051 38.4828 56.6051C38.7911 56.6051 39.0695 56.562 39.3181 56.4759C39.57 56.3864 39.7871 56.2538 39.9693 56.0781C40.1516 55.8991 40.2925 55.6771 40.3919 55.4119L41.5255 55.7301C41.4061 56.1146 41.2056 56.4527 40.9239 56.7443C40.6422 57.0327 40.2942 57.258 39.8799 57.4205C39.4656 57.5795 38.9999 57.6591 38.4828 57.6591ZM43.4296 57.5V49.8636H44.5631V51.017H44.6426C44.7818 50.6392 45.0337 50.3326 45.3983 50.0973C45.7629 49.862 46.1739 49.7443 46.6313 49.7443C46.7175 49.7443 46.8252 49.746 46.9544 49.7493C47.0837 49.7526 47.1815 49.7576 47.2478 49.7642V50.9574C47.208 50.9474 47.1168 50.9325 46.9743 50.9126C46.8351 50.8894 46.6876 50.8778 46.5318 50.8778C46.1606 50.8778 45.8292 50.9557 45.5375 51.1115C45.2492 51.264 45.0205 51.4761 44.8515 51.7479C44.6857 52.0163 44.6029 52.3229 44.6029 52.6676V57.5H43.4296Z" fill="#231F20"/>
<g filter="url(#filter0_d_1_2603)">
<path d="M25.3839 6.9795C14.0107 6.9795 4.70532 13.6216 4.70532 21.8222C4.70532 25.7556 8.11728 29.0024 12.4805 29.2436H12.9767C17.5449 29.2436 21.2482 25.9209 21.2482 21.8222C21.2482 17.7235 17.5449 14.4009 12.9767 14.4009H12.4805C15.9544 11.4509 20.6071 9.85528 25.3839 9.94804C29.044 9.91094 32.6213 10.8201 35.7231 12.5455L38.3079 10.2263C34.4411 8.0556 29.9538 6.92384 25.3839 6.9795ZM12.9767 18.1115C15.2608 18.1115 17.1124 19.7729 17.1124 21.8222C17.1124 23.8817 15.21 25.5329 12.9767 25.5329C10.8262 25.5329 9.04781 24.0857 8.84103 22.1933C8.84103 21.9521 8.84103 21.6924 8.84103 21.4512C9.04781 19.5402 10.8468 18.1115 12.9767 18.1115ZM38.2873 14.4009H37.791C33.2228 14.4009 29.5196 17.7235 29.5196 21.8222C29.5196 25.9209 33.2228 29.2436 37.791 29.2436H38.2873C34.8133 32.1936 30.1606 33.7892 25.3839 33.6964C21.7238 33.7335 18.1464 32.8244 15.0446 31.0989L12.4805 33.3996C16.3473 35.5703 20.8139 36.665 25.3839 36.665C36.7571 36.665 46.0624 30.0228 46.0624 21.8222C46.0624 17.8889 42.6504 14.6421 38.2873 14.4009ZM37.791 25.5329C35.5069 25.5329 33.6553 23.8716 33.6553 21.8222C33.6553 19.7628 35.5577 18.1115 37.791 18.1115C39.9416 18.1115 41.7199 19.5587 41.9267 21.4512C41.9267 21.6924 41.9267 21.9521 41.9267 22.1933C41.7199 24.1043 39.9209 25.5329 37.791 25.5329Z" fill="#FF0A6B"/>
</g>
<defs>
<filter id="filter0_d_1_2603" x="1.70532" y="6.97754" width="47.3572" height="37.6875" filterUnits="userSpaceOnUse" color-interpolation-filters="sRGB">
<feFlood flood-opacity="0" result="BackgroundImageFix"/>
<feColorMatrix in="SourceAlpha" type="matrix" values="0 0 0 0 0 0 0 0 0 0 0 0 0 0 0 0 0 0 127 0" result="hardAlpha"/>
<feOffset dy="5"/>
<feGaussianBlur stdDeviation="1.5"/>
<feComposite in2="hardAlpha" operator="out"/>
<feColorMatrix type="matrix" values="0 0 0 0 0 0 0 0 0 0 0 0 0 0 0 0 0 0 0.0509804 0"/>
<feBlend mode="normal" in2="BackgroundImageFix" result="effect1_dropShadow_1_2603"/>
<feBlend mode="normal" in="SourceGraphic" in2="effect1_dropShadow_1_2603" result="shape"/>
</filter>
</defs>
</svg>
