<svg width="52" height="62" viewBox="0 0 52 62" fill="none" xmlns="http://www.w3.org/2000/svg">
<path d="M31.6836 21.7603L25.4682 16.0193L19.2528 21.7603L13.0374 16.0193L8.29302 20.4207L5.35107 17.7033L13.0374 10.6228L19.2528 16.3638L25.4682 10.6228L31.6836 16.3638L37.899 10.6228L45.5853 17.7033L42.6434 20.4207L37.899 16.0193L31.6836 21.7603ZM37.899 27.5013L42.6434 31.9027L45.5853 29.1853L37.899 22.1047L31.6836 27.8457L25.4682 22.1047L19.2528 27.8457L13.0374 22.1047L5.35107 29.1853L8.29302 31.9027L13.0374 27.5013L19.2528 33.2422L25.4682 27.5013L31.6836 33.2422L37.899 27.5013Z" fill="#FF0A6B"/>
<path d="M2.27825 57.5H0.98564L4.72428 47.3182H5.997L9.73564 57.5H8.44303L5.40041 48.929H5.32087L2.27825 57.5ZM2.75553 53.5227H7.96575V54.6165H2.75553V53.5227ZM16.3727 60.3636V56.3267H16.2733C16.1871 56.4659 16.0645 56.6416 15.9054 56.8537C15.7463 57.0625 15.5193 57.2498 15.2243 57.4155C14.9293 57.5779 14.5365 57.6591 14.046 57.6591C13.4096 57.6591 12.8479 57.4983 12.3606 57.1768C11.8734 56.852 11.4923 56.3946 11.2172 55.8047C10.9421 55.2114 10.8045 54.5104 10.8045 53.7017C10.8045 52.8996 10.9421 52.2036 11.2172 51.6136C11.4923 51.0237 11.8751 50.5679 12.3656 50.2464C12.8561 49.925 13.4229 49.7642 14.0659 49.7642C14.5631 49.7642 14.9558 49.8471 15.2442 50.0128C15.5358 50.1752 15.7579 50.3608 15.9104 50.5696C16.0661 50.7751 16.1871 50.9441 16.2733 51.0767H16.4125V49.8636H17.546V60.3636H16.3727ZM14.2051 56.6051C14.6757 56.6051 15.0735 56.4825 15.3983 56.2372C15.7231 55.9886 15.97 55.6456 16.139 55.2081C16.3081 54.7673 16.3926 54.2585 16.3926 53.6818C16.3926 53.1117 16.3097 52.6129 16.144 52.1854C15.9783 51.7545 15.733 51.4197 15.4082 51.1811C15.0834 50.9392 14.6824 50.8182 14.2051 50.8182C13.7079 50.8182 13.2936 50.9458 12.9622 51.201C12.6341 51.4529 12.3872 51.7959 12.2214 52.2301C12.059 52.661 11.9778 53.1449 11.9778 53.6818C11.9778 54.2254 12.0607 54.7192 12.2264 55.1634C12.3954 55.6042 12.644 55.9555 12.9721 56.2173C13.3036 56.4759 13.7146 56.6051 14.2051 56.6051ZM24.5062 54.3778V49.8636H25.6795V57.5H24.5062V56.2074H24.4267C24.2477 56.5952 23.9693 56.925 23.5915 57.1967C23.2136 57.4652 22.7364 57.5994 22.1596 57.5994C21.6824 57.5994 21.2581 57.495 20.8869 57.2862C20.5157 57.0741 20.224 56.7559 20.0119 56.3317C19.7998 55.9041 19.6937 55.3655 19.6937 54.7159V49.8636H20.867V54.6364C20.867 55.1932 21.0228 55.6373 21.3344 55.9688C21.6492 56.3002 22.0503 56.4659 22.5375 56.4659C22.8292 56.4659 23.1258 56.3913 23.4274 56.2422C23.7323 56.093 23.9875 55.8643 24.193 55.5561C24.4018 55.2479 24.5062 54.8551 24.5062 54.3778ZM30.0757 57.679C29.5918 57.679 29.1526 57.5878 28.7582 57.4055C28.3638 57.2199 28.0506 56.9531 27.8186 56.6051C27.5866 56.2538 27.4705 55.8295 27.4705 55.3324C27.4705 54.8949 27.5567 54.5402 27.7291 54.2685C27.9014 53.9934 28.1318 53.7779 28.4201 53.6222C28.7085 53.4664 29.0267 53.3504 29.3747 53.2741C29.726 53.1946 30.079 53.1316 30.4336 53.0852C30.8976 53.0256 31.2738 52.9808 31.5622 52.951C31.8538 52.9179 32.066 52.8632 32.1985 52.7869C32.3344 52.7107 32.4024 52.5781 32.4024 52.3892V52.3494C32.4024 51.8589 32.2681 51.4777 31.9997 51.206C31.7345 50.9342 31.3318 50.7983 30.7916 50.7983C30.2314 50.7983 29.7923 50.9209 29.4741 51.1662C29.1559 51.4115 28.9322 51.6733 28.8029 51.9517L27.6893 51.554C27.8882 51.09 28.1533 50.7287 28.4848 50.4702C28.8195 50.2083 29.1841 50.026 29.5785 49.9233C29.9762 49.8172 30.3673 49.7642 30.7518 49.7642C30.9971 49.7642 31.2788 49.794 31.597 49.8537C31.9185 49.91 32.2284 50.0277 32.5267 50.2067C32.8283 50.3857 33.0785 50.6558 33.2774 51.017C33.4762 51.3783 33.5757 51.8622 33.5757 52.4688V57.5H32.4024V56.4659H32.3427C32.2632 56.6316 32.1306 56.8089 31.945 56.9979C31.7594 57.1868 31.5125 57.3475 31.2042 57.4801C30.896 57.6127 30.5198 57.679 30.0757 57.679ZM30.2546 56.625C30.7187 56.625 31.1098 56.5339 31.4279 56.3516C31.7494 56.1693 31.9914 55.9339 32.1538 55.6456C32.3195 55.3572 32.4024 55.054 32.4024 54.7358V53.6619C32.3527 53.7216 32.2433 53.7763 32.0742 53.826C31.9085 53.8724 31.7163 53.9138 31.4975 53.9503C31.2821 53.9834 31.0716 54.0133 30.8661 54.0398C30.664 54.063 30.4999 54.0829 30.374 54.0994C30.069 54.1392 29.784 54.2038 29.5188 54.2933C29.257 54.3795 29.0449 54.5104 28.8825 54.6861C28.7234 54.8584 28.6438 55.0937 28.6438 55.392C28.6438 55.7997 28.7946 56.108 29.0963 56.3168C29.4012 56.5223 29.7873 56.625 30.2546 56.625ZM30.2944 48.8295L31.5075 46.5227H32.8796L31.3285 48.8295H30.2944ZM35.7172 57.5V49.8636H36.8507V51.017H36.9302C37.0694 50.6392 37.3213 50.3326 37.6859 50.0973C38.0505 49.862 38.4615 49.7443 38.9189 49.7443C39.0051 49.7443 39.1128 49.746 39.242 49.7493C39.3713 49.7526 39.4691 49.7576 39.5354 49.7642V50.9574C39.4956 50.9474 39.4044 50.9325 39.2619 50.9126C39.1227 50.8894 38.9752 50.8778 38.8194 50.8778C38.4482 50.8778 38.1168 50.9557 37.8251 51.1115C37.5368 51.264 37.3081 51.4761 37.139 51.7479C36.9733 52.0163 36.8905 52.3229 36.8905 52.6676V57.5H35.7172ZM40.9262 57.5V49.8636H42.0995V57.5H40.9262ZM41.5227 48.5909C41.2941 48.5909 41.0968 48.513 40.9311 48.3572C40.7687 48.2015 40.6875 48.0142 40.6875 47.7955C40.6875 47.5767 40.7687 47.3894 40.9311 47.2337C41.0968 47.0779 41.2941 47 41.5227 47C41.7514 47 41.947 47.0779 42.1094 47.2337C42.2751 47.3894 42.358 47.5767 42.358 47.7955C42.358 48.0142 42.2751 48.2015 42.1094 48.3572C41.947 48.513 41.7514 48.5909 41.5227 48.5909ZM47.3507 57.6591C46.6613 57.6591 46.0564 57.495 45.5361 57.1669C45.019 56.8388 44.6147 56.3797 44.323 55.7898C44.0346 55.1998 43.8905 54.5104 43.8905 53.7216C43.8905 52.9261 44.0346 52.2318 44.323 51.6385C44.6147 51.0452 45.019 50.5845 45.5361 50.2564C46.0564 49.9283 46.6613 49.7642 47.3507 49.7642C48.0401 49.7642 48.6433 49.9283 49.1604 50.2564C49.6807 50.5845 50.0851 51.0452 50.3734 51.6385C50.6651 52.2318 50.8109 52.9261 50.8109 53.7216C50.8109 54.5104 50.6651 55.1998 50.3734 55.7898C50.0851 56.3797 49.6807 56.8388 49.1604 57.1669C48.6433 57.495 48.0401 57.6591 47.3507 57.6591ZM47.3507 56.6051C47.8744 56.6051 48.3052 56.4709 48.6433 56.2024C48.9814 55.9339 49.2316 55.581 49.394 55.1435C49.5564 54.706 49.6376 54.232 49.6376 53.7216C49.6376 53.2112 49.5564 52.7356 49.394 52.2947C49.2316 51.8539 48.9814 51.4976 48.6433 51.2259C48.3052 50.9541 47.8744 50.8182 47.3507 50.8182C46.827 50.8182 46.3962 50.9541 46.0581 51.2259C45.72 51.4976 45.4698 51.8539 45.3074 52.2947C45.145 52.7356 45.0638 53.2112 45.0638 53.7216C45.0638 54.232 45.145 54.706 45.3074 55.1435C45.4698 55.581 45.72 55.9339 46.0581 56.2024C46.3962 56.4709 46.827 56.6051 47.3507 56.6051Z" fill="#231F20"/>
</svg>
